<svg width="66" height="66" viewBox="0 0 66 66" fill="none" xmlns="http://www.w3.org/2000/svg">
<g clip-path="url(#clip0_5548_22671)">
<path fill-rule="evenodd" clip-rule="evenodd" d="M25.4527 0.674072C22.9145 0.674072 20.8568 2.73174 20.8568 5.27002V20.3648H5.48706C2.94879 20.3648 0.891113 22.4224 0.891113 24.9607V60.5283C0.891113 63.0666 2.94879 65.1243 5.48706 65.1243H40.6363C43.1746 65.1243 45.2323 63.0666 45.2323 60.5283V45.4336H60.602C63.1403 45.4336 65.198 43.3759 65.198 40.8376V5.27002C65.198 2.73175 63.1403 0.674072 60.602 0.674072H25.4527ZM45.2323 45.4336V24.9607C45.2323 22.4224 43.1746 20.3648 40.6363 20.3648H20.8568V40.8376C20.8568 43.3759 22.9145 45.4336 25.4527 45.4336H45.2323Z" fill="white"/>
</g>
<defs>
<clipPath id="clip0_5548_22671">
<rect width="66" height="66" fill="white"/>
</clipPath>
</defs>
</svg>
