<svg width="157" height="100" viewBox="0 0 157 100" fill="none" xmlns="http://www.w3.org/2000/svg">
<path d="M2 10.8274H51.6981C62.2762 10.8274 70.8514 19.4026 70.8514 29.9807V98.167H2V10.8274Z" fill="#F9F9F9" stroke="#0E1435" stroke-width="3" stroke-linejoin="round"/>
<path d="M9.32812 2H51.701C62.2791 2 70.8543 10.5752 70.8543 21.1533V90.4666H9.32812V2Z" fill="white" stroke="#0E1435" stroke-width="3" stroke-linejoin="round"/>
<path d="M70.8516 29.9807C70.8516 19.4026 79.4268 10.8274 90.0049 10.8274H139.703V98.167H70.8516V29.9807Z" fill="#F9F9F9" stroke="#0E1435" stroke-width="3" stroke-linejoin="round"/>
<path d="M70.8516 21.1533C70.8516 10.5752 79.4268 2 90.0049 2H132.378V90.4666H70.8516V21.1533Z" fill="white" stroke="#0E1435" stroke-width="3" stroke-linejoin="round"/>
<circle cx="129.332" cy="49.5042" r="25.8748" fill="white"/>
<path d="M111.242 68.2965L101.414 78.1247M147.616 67.8778C137.493 78.0003 121.081 78.0003 110.959 67.8778C100.837 57.7554 100.837 41.3437 110.959 31.2212C121.081 21.0988 137.493 21.0988 147.616 31.2212C157.738 41.3437 157.738 57.7554 147.616 67.8778Z" stroke="#3354FF" stroke-width="3" stroke-linecap="round"/>
</svg>
