<svg width="172" height="42" viewBox="0 0 172 42" fill="none" xmlns="http://www.w3.org/2000/svg">
<path d="M34.4625 18.6958C34.9639 18.1944 34.9639 17.3815 34.4625 16.8802L28.713 11.1306C28.2116 10.6293 27.3987 10.6293 26.8974 11.1306L21.1478 16.8802C20.6465 17.3815 20.6465 18.1944 21.1478 18.6958L25.9139 23.4619C26.4153 23.9632 26.4153 24.7761 25.9139 25.2775L21.2991 29.8923C20.7978 30.3936 20.7978 31.2065 21.2991 31.7079L27.0487 37.4574C27.55 37.9588 28.3629 37.9588 28.8643 37.4574L34.6138 31.7079C35.1152 31.2065 35.1152 30.3936 34.6138 29.8923L29.8478 25.1262C29.3464 24.6248 29.3464 23.8119 29.8478 23.3106L34.4625 18.6958Z" fill="#3354FF"/>
<path d="M20.9967 12.1899C21.4981 11.6886 21.4981 10.8757 20.9967 10.3743L15.2472 4.62478C14.7458 4.12341 13.9329 4.12341 13.4315 4.62478L7.68202 10.3743C7.18064 10.8757 7.18064 11.6886 7.68202 12.1899L12.4481 16.956C12.9494 17.4574 12.9494 18.2703 12.4481 18.7716L7.83332 23.3864C7.33195 23.8878 7.33195 24.7007 7.83332 25.202L13.5828 30.9516C14.0842 31.4529 14.8971 31.4529 15.3985 30.9516L21.148 25.202C21.6494 24.7007 21.6494 23.8878 21.148 23.3864L16.382 18.6203C15.8806 18.119 15.8806 17.3061 16.382 16.8047L20.9967 12.1899Z" fill="#3354FF"/>
<path d="M48.528 32V9.6H51.44V32H48.528ZM63.4788 15.616C64.4174 15.616 65.3774 15.8187 66.3588 16.224C67.3401 16.608 68.1828 17.312 68.8868 18.336C69.5908 19.3387 69.9428 20.704 69.9428 22.432V32H67.1908V22.432C67.1908 20.8747 66.7641 19.7653 65.9108 19.104C65.0574 18.4213 64.0548 18.08 62.9028 18.08C61.7934 18.08 60.8228 18.4747 59.9908 19.264C59.1588 20.032 58.7428 21.3013 58.7428 23.072V32H55.9908V16H58.7428V17.888C59.3188 17.2053 60.0121 16.6613 60.8228 16.256C61.6334 15.8293 62.5188 15.616 63.4788 15.616ZM79.163 28.832L84.219 16H87.163L80.891 32H77.467L71.163 16H74.107L79.163 28.832ZM91.2925 20.384C91.2925 21.0027 91.5805 21.4507 92.1565 21.728C92.7538 22.0053 93.7032 22.304 95.0045 22.624C96.2632 22.9227 97.2872 23.2213 98.0765 23.52C98.8872 23.8187 99.5698 24.288 100.125 24.928C100.701 25.568 100.989 26.432 100.989 27.52C100.989 28.992 100.381 30.176 99.1645 31.072C97.9485 31.9467 96.4232 32.384 94.5885 32.384C92.9458 32.384 91.5592 32.064 90.4285 31.424C89.2978 30.784 88.4765 29.888 87.9645 28.736L90.2365 27.552C90.5778 28.4053 91.1218 29.0453 91.8685 29.472C92.6152 29.8773 93.5218 30.08 94.5885 30.08C95.5912 30.08 96.4552 29.856 97.1805 29.408C97.9272 28.96 98.3005 28.3413 98.3005 27.552C98.3005 27.0613 98.1192 26.656 97.7565 26.336C97.4152 26.016 96.9778 25.7707 96.4445 25.6C95.9325 25.4293 95.1965 25.216 94.2365 24.96C93.0205 24.6613 92.0285 24.3733 91.2605 24.096C90.5138 23.7973 89.8632 23.36 89.3085 22.784C88.7752 22.208 88.5085 21.4293 88.5085 20.448C88.5085 19.5093 88.7752 18.6773 89.3085 17.952C89.8418 17.2053 90.5672 16.6293 91.4845 16.224C92.4018 15.8187 93.4258 15.616 94.5565 15.616C95.9005 15.616 97.0845 15.904 98.1085 16.48C99.1538 17.056 99.9538 17.856 100.509 18.88L98.2365 20.032C97.9165 19.3493 97.4472 18.8267 96.8285 18.464C96.2098 18.08 95.4525 17.888 94.5565 17.888C93.5538 17.888 92.7538 18.1227 92.1565 18.592C91.5805 19.04 91.2925 19.6373 91.2925 20.384ZM108.57 27.008C108.57 27.9893 108.751 28.672 109.114 29.056C109.498 29.4187 110.106 29.6 110.938 29.6C111.194 29.6 111.727 29.5573 112.538 29.472V32C111.62 32.1067 110.852 32.16 110.234 32.16C108.719 32.16 107.599 31.7973 106.874 31.072C106.17 30.3467 105.818 29.0453 105.818 27.168V18.528H102.266V16H105.818V11.648L108.57 10.656V16H112.474V18.528H108.57V27.008ZM122.757 32.384C121.242 32.384 119.845 32.0107 118.565 31.264C117.285 30.5173 116.261 29.504 115.493 28.224C114.746 26.9227 114.373 25.5147 114.373 24C114.373 22.4853 114.746 21.088 115.493 19.808C116.261 18.528 117.285 17.5147 118.565 16.768C119.845 16.0213 121.242 15.648 122.757 15.648C124.272 15.648 125.669 16.0213 126.949 16.768C128.229 17.5147 129.242 18.528 129.989 19.808C130.757 21.088 131.141 22.4853 131.141 24C131.141 25.5147 130.757 26.9227 129.989 28.224C129.242 29.504 128.229 30.5173 126.949 31.264C125.669 32.0107 124.272 32.384 122.757 32.384ZM122.757 29.632C123.781 29.632 124.72 29.3867 125.573 28.896C126.426 28.384 127.098 27.7013 127.589 26.848C128.101 25.9733 128.357 25.024 128.357 24C128.357 22.976 128.101 22.0373 127.589 21.184C127.098 20.3307 126.426 19.6587 125.573 19.168C124.72 18.656 123.781 18.4 122.757 18.4C121.733 18.4 120.784 18.656 119.909 19.168C119.056 19.6587 118.373 20.3307 117.861 21.184C117.37 22.0373 117.125 22.976 117.125 24C117.125 25.024 117.37 25.9733 117.861 26.848C118.373 27.7013 119.056 28.384 119.909 28.896C120.784 29.3867 121.733 29.632 122.757 29.632ZM141.862 15.648C142.118 15.648 142.31 15.6587 142.438 15.68L142.214 18.304C141.958 18.2613 141.755 18.24 141.606 18.24C140.241 18.24 139.089 18.656 138.15 19.488C137.233 20.32 136.774 21.5253 136.774 23.104V32H134.022V16H136.774V18.752C137.137 17.8773 137.755 17.1413 138.63 16.544C139.526 15.9467 140.603 15.648 141.862 15.648ZM163.407 20.672L170.735 32H167.247L161.423 22.976L155.567 32H152.047L159.407 20.672L152.207 9.6H155.727L161.423 18.4L167.087 9.6H170.575L163.407 20.672Z" fill="#0E1435"/>
</svg>
