<svg width="2216" height="258" viewBox="0 0 2216 258" fill="none" xmlns="http://www.w3.org/2000/svg">
<path d="M295.754 188.377C287.728 181.243 283.27 173.217 283.27 171.434C303.958 176.428 318.643 185.999 323.399 190.161L295.754 188.377Z" fill="#FCBC5A"/>
<path d="M190.528 166.975C167.699 161.981 135.239 135.169 121.862 122.387C121.862 123.056 121.861 124.681 121.861 125.494C135.623 160.992 178.151 175.365 197.662 178.568C194.808 177.141 191.717 170.245 190.528 166.975Z" fill="#80385E"/>
<path d="M249.383 175.893C206.578 198.008 146.533 150.626 121.861 124.171C121.861 135.763 121.861 177.676 120.078 185.702C118.294 193.728 109.377 207.104 96.8921 211.563C86.9044 215.13 74.7344 229.932 69.3839 234.688C52.2621 253.236 30.9021 243.963 22.8763 239.207L0 250.8C14.1368 257.924 45.3351 262.596 61.7468 250.8C73.6233 242.264 102.11 231.566 134.213 237.273C166.316 242.98 202.284 225.383 216.255 215.871C254.299 189.968 277.621 187.783 293.97 188.377C285.409 184.097 281.486 174.704 280.594 170.542C267.039 169.115 254.139 173.515 249.383 175.893Z" fill="url(#paint0_linear_10_36)"/>
<path d="M122.752 117.037C118.472 57.824 154.855 15.6736 173.582 2C188.563 50.5116 186.959 106.038 184.285 127.738C182.521 140.085 183.165 148.071 184.405 152.791C185.406 156.599 188.76 159.367 189.595 163.215C189.61 163.282 189.623 163.346 189.635 163.408C160.386 151.993 132.859 127.738 122.752 117.037Z" fill="#FFB249" stroke="#FFB249" stroke-width="1.78351"/>
<path d="M173.584 2C188.564 50.5116 186.96 106.038 184.286 127.738L183.393 133.98C170.017 122.387 140.767 91.5324 130.779 60.8559C135.535 48.0741 150.755 18.4083 173.584 2Z" fill="#FE6383" stroke="#FE6383" stroke-width="1.78351"/>
<path d="M94.2269 64.423C109.923 78.6911 110.278 100.093 110.279 114.361C105.327 109.119 85.2431 97.0266 62.6237 99.8969C61.804 100.001 61.0056 99.5661 60.7391 98.7841C57.0442 87.9383 53.795 57.6535 67.473 25.1857C69.8511 32.3197 78.5311 50.1549 94.2269 64.423Z" fill="#C6E36B"/>
<path d="M110.25 110.795C98.835 90.1062 71.029 85.5281 58.5444 85.8253C57.9899 87.4887 58.8257 93.3893 59.6443 97.7503C59.9882 99.5827 61.7384 100.758 63.5938 100.576C85.6584 98.4118 103.729 108.412 110.246 114.362L110.25 110.795Z" fill="#80385E"/>
<path d="M86.1928 158.057C86.1928 145.929 78.4635 133.98 74.5988 129.521C70.7346 124.765 62.2926 111.686 59.439 97.4179C74.5988 95.6344 99.568 102.768 110.27 114.087V171.434C104.028 206.212 86.1928 173.217 86.1928 158.057Z" fill="#FBBC53"/>
<path d="M131.671 59.0724C136.665 82.6148 169.124 119.712 184.284 134.872C150.398 116.145 132.265 84.6361 127.212 72.4488C127.925 69.5952 130.482 62.3422 131.671 59.0724Z" fill="#80385E" stroke="#80385E" stroke-width="1.78351"/>
<path d="M396.95 146.015H441.405L441.66 147.46H396.525L396.95 146.015ZM399.075 191.49C399.075 191.603 399.018 191.717 398.905 191.83C398.848 191.943 398.735 192 398.565 192H374.17C374 192 373.858 191.943 373.745 191.83C373.632 191.717 373.575 191.603 373.575 191.49C373.575 191.32 373.66 191.207 373.83 191.15C373.943 191.037 374.085 190.98 374.255 190.98L378.165 189.79C379.695 189.28 381.197 188.26 382.67 186.73C384.143 185.143 385.418 182.508 386.495 178.825L415.82 80.82C416.33 79.12 416.273 77.76 415.65 76.74C415.083 75.72 413.865 74.955 411.995 74.445C411.542 74.1617 411.173 73.9633 410.89 73.85C410.663 73.7367 410.55 73.6233 410.55 73.51C410.55 73.2833 410.607 73.1417 410.72 73.085C410.833 73.0283 411.003 73 411.23 73H438.005C438.232 73 438.402 73.0283 438.515 73.085C438.628 73.1417 438.685 73.2833 438.685 73.51C438.685 73.6233 438.572 73.765 438.345 73.935C438.118 74.0483 437.75 74.19 437.24 74.36C435.597 74.4733 434.605 74.785 434.265 75.295C433.982 75.7483 434.067 76.6267 434.52 77.93L469.455 186.56C469.908 187.977 470.617 189.025 471.58 189.705C472.543 190.385 473.762 190.782 475.235 190.895C475.518 190.952 475.717 191.037 475.83 191.15C475.943 191.207 476 191.32 476 191.49C476 191.603 475.943 191.717 475.83 191.83C475.773 191.943 475.632 192 475.405 192H443.53C443.36 192 443.218 191.943 443.105 191.83C442.992 191.717 442.935 191.603 442.935 191.49C442.935 191.32 443.02 191.207 443.19 191.15C443.36 191.093 443.558 191.037 443.785 190.98L448.375 190.47C449.678 190.187 450.5 189.677 450.84 188.94C451.18 188.147 451.152 187.155 450.755 185.965L416.84 79.545L418.54 76.485L387.94 179.08C387.317 181.12 387.232 182.877 387.685 184.35C388.138 185.823 389.017 187.042 390.32 188.005C391.623 188.912 393.238 189.62 395.165 190.13L398.395 190.98C398.622 191.037 398.792 191.122 398.905 191.235C399.018 191.292 399.075 191.377 399.075 191.49ZM539.34 191.49C539.34 191.603 539.283 191.717 539.17 191.83C539.056 191.943 538.886 192 538.66 192H506.02C505.85 192 505.708 191.943 505.595 191.83C505.481 191.717 505.425 191.603 505.425 191.49C505.425 191.32 505.68 191.15 506.19 190.98L512.99 189.025C514.973 188.402 516.56 187.495 517.75 186.305C518.996 185.058 519.62 183.217 519.62 180.78V90.765C519.62 89.915 519.563 89.2917 519.45 88.895C519.393 88.4417 519.025 87.7617 518.345 86.855L510.61 74.7C510.44 74.36 510.241 74.0767 510.015 73.85C509.845 73.5667 509.76 73.3683 509.76 73.255C509.76 73.1417 509.816 73.085 509.93 73.085C510.043 73.0283 510.213 73 510.44 73H529.395C529.791 73 530.103 73.17 530.33 73.51C530.556 73.85 530.925 74.4167 531.435 75.21L597.055 177.635L596.12 179.335V84.22C596.12 81.7833 595.468 79.9417 594.165 78.695C592.918 77.3917 591.303 76.485 589.32 75.975L578.61 74.02C578.043 73.85 577.76 73.68 577.76 73.51C577.76 73.34 577.816 73.2267 577.93 73.17C578.043 73.0567 578.213 73 578.44 73H611.08C611.306 73 611.476 73.0567 611.59 73.17C611.703 73.2267 611.76 73.34 611.76 73.51C611.76 73.68 611.476 73.85 610.91 74.02L604.11 75.975C602.183 76.485 600.596 77.3917 599.35 78.695C598.103 79.9417 597.48 81.7833 597.48 84.22V176.87C597.48 177.493 597.593 178.06 597.82 178.57C598.046 179.08 598.273 179.562 598.5 180.015L604.365 189.025C604.875 189.762 605.215 190.328 605.385 190.725C605.611 191.122 605.725 191.433 605.725 191.66C605.725 191.717 605.668 191.802 605.555 191.915C605.441 191.972 605.215 192 604.875 192H586.94C586.033 192 585.58 191.603 585.58 190.81C585.58 190.527 585.523 190.215 585.41 189.875C585.296 189.478 585.126 189.082 584.9 188.685L518.43 86.005H521.065V180.865C521.065 183.245 521.688 185.058 522.935 186.305C524.181 187.552 525.74 188.458 527.61 189.025L538.49 190.98C539.056 191.15 539.34 191.32 539.34 191.49ZM744.269 191.83C744.269 192.68 744.213 193.218 744.099 193.445C744.043 193.728 743.873 193.87 743.589 193.87C743.136 193.87 742.258 193.445 740.954 192.595C739.708 191.745 738.291 190.753 736.704 189.62C735.174 188.487 733.644 187.495 732.114 186.645C730.641 185.795 729.451 185.37 728.544 185.37C728.034 185.37 727.128 185.795 725.824 186.645C724.578 187.495 722.878 188.458 720.724 189.535C718.571 190.612 715.936 191.575 712.819 192.425C709.759 193.275 706.133 193.7 701.939 193.7C693.609 193.7 686.016 192.227 679.159 189.28C672.359 186.333 666.494 182.197 661.564 176.87C656.634 171.543 652.809 165.282 650.089 158.085C647.426 150.832 646.094 142.927 646.094 134.37C646.094 124.85 647.511 116.237 650.344 108.53C653.178 100.767 657.173 94.1083 662.329 88.555C667.543 83.0017 673.691 78.7517 680.774 75.805C687.858 72.8017 695.649 71.3 704.149 71.3C709.363 71.3 713.698 71.98 717.154 73.34C720.668 74.7 723.388 76.06 725.314 77.42C727.241 78.78 728.431 79.46 728.884 79.46C729.678 79.46 730.754 78.78 732.114 77.42C733.531 76.06 734.891 74.7283 736.194 73.425C737.498 72.065 738.404 71.385 738.914 71.385C739.084 71.385 739.226 71.47 739.339 71.64C739.453 71.7533 739.538 72.0367 739.594 72.49L745.799 106.405C745.856 106.632 745.884 106.83 745.884 107C745.884 107.17 745.828 107.312 745.714 107.425C745.601 107.482 745.459 107.482 745.289 107.425C745.176 107.368 745.006 107.227 744.779 107C741.833 98.9533 738.291 92.4083 734.154 87.365C730.018 82.265 725.399 78.525 720.299 76.145C715.256 73.765 709.873 72.575 704.149 72.575C696.499 72.575 689.671 74.7567 683.664 79.12C677.658 83.4833 672.926 89.9433 669.469 98.5C666.013 107.057 664.284 117.71 664.284 130.46C664.284 143.097 666.126 153.948 669.809 163.015C673.493 172.082 678.508 179.052 684.854 183.925C691.201 188.742 698.313 191.15 706.189 191.15C708.229 191.15 710.496 190.895 712.989 190.385C715.539 189.818 717.948 188.997 720.214 187.92C722.538 186.843 724.436 185.512 725.909 183.925C727.383 182.338 728.119 180.525 728.119 178.485V146.44C728.119 145.76 727.864 145.25 727.354 144.91C726.901 144.513 726.164 144.287 725.144 144.23L713.499 143.04C713.159 142.983 712.933 142.927 712.819 142.87C712.706 142.757 712.649 142.643 712.649 142.53C712.649 142.36 712.706 142.247 712.819 142.19C712.933 142.077 713.103 142.02 713.329 142.02H752.939C753.166 142.02 753.336 142.077 753.449 142.19C753.619 142.247 753.704 142.36 753.704 142.53C753.704 142.643 753.619 142.757 753.449 142.87C753.336 142.927 753.138 142.983 752.854 143.04L746.564 144.23C745.771 144.343 745.176 144.57 744.779 144.91C744.439 145.25 744.269 145.76 744.269 146.44V191.83ZM813.819 130.375H840.339C844.646 130.375 847.763 129.412 849.689 127.485C851.673 125.502 852.806 121.903 853.089 116.69C853.146 116.407 853.203 116.237 853.259 116.18C853.373 116.067 853.486 116.01 853.599 116.01C853.939 115.897 854.194 116.18 854.364 116.86L862.609 144.06C862.723 144.343 862.751 144.57 862.694 144.74C862.638 144.91 862.553 145.023 862.439 145.08C862.326 145.08 862.184 145.08 862.014 145.08C861.901 145.023 861.759 144.91 861.589 144.74C859.323 141.283 857.283 138.648 855.469 136.835C853.713 134.965 851.814 133.662 849.774 132.925C847.734 132.188 845.269 131.82 842.379 131.82H813.819V130.375ZM788.319 73.51C788.319 73.34 788.376 73.2267 788.489 73.17C788.603 73.0567 788.773 73 788.999 73H858.359C859.549 73 860.626 72.8017 861.589 72.405C862.609 71.9517 863.431 71.5267 864.054 71.13C864.734 70.7333 865.159 70.535 865.329 70.535C865.499 70.535 865.613 70.62 865.669 70.79C865.783 70.9033 865.924 71.3283 866.094 72.065L873.234 99.86C873.348 100.143 873.348 100.37 873.234 100.54C873.178 100.653 873.093 100.71 872.979 100.71C872.866 100.767 872.753 100.767 872.639 100.71C872.526 100.653 872.384 100.512 872.214 100.285C869.211 95.015 866.491 90.7083 864.054 87.365C861.618 84.0217 859.323 81.415 857.169 79.545C855.073 77.6183 852.976 76.2867 850.879 75.55C848.783 74.8133 846.544 74.445 844.164 74.445H817.559V187.07C817.559 188.203 817.899 189.082 818.579 189.705C819.316 190.272 820.364 190.555 821.724 190.555H845.014C848.301 190.555 851.333 189.762 854.109 188.175C856.943 186.588 859.946 183.472 863.119 178.825C866.293 174.122 870.061 167.18 874.424 158C874.651 157.717 874.821 157.518 874.934 157.405C875.048 157.292 875.189 157.263 875.359 157.32C875.529 157.32 875.643 157.433 875.699 157.66C875.756 157.83 875.728 158.113 875.614 158.51L867.199 192.85C867.029 193.53 866.888 193.955 866.774 194.125C866.661 194.352 866.548 194.465 866.434 194.465C866.038 194.465 865.471 194.267 864.734 193.87C864.054 193.473 863.119 193.048 861.929 192.595C860.796 192.198 859.294 192 857.424 192H788.999C788.773 192 788.603 191.943 788.489 191.83C788.376 191.717 788.319 191.603 788.319 191.49C788.319 191.207 788.603 191.037 789.169 190.98L797.074 189.79C798.094 189.677 798.831 189.45 799.284 189.11C799.794 188.77 800.049 188.26 800.049 187.58V77.42C800.049 76.74 799.794 76.23 799.284 75.89C798.831 75.55 798.094 75.3233 797.074 75.21L789.169 74.02C788.603 73.9633 788.319 73.7933 788.319 73.51ZM951.39 74.02L943.485 75.21C942.465 75.3233 941.7 75.55 941.19 75.89C940.737 76.23 940.51 76.74 940.51 77.42V187.24C940.51 188.43 940.85 189.28 941.53 189.79C942.267 190.3 943.315 190.555 944.675 190.555H966.01C968.73 190.555 971.224 190.073 973.49 189.11C975.757 188.147 977.939 186.418 980.035 183.925C982.189 181.432 984.37 177.833 986.58 173.13L993.635 158C993.805 157.717 993.947 157.518 994.06 157.405C994.174 157.292 994.315 157.263 994.485 157.32C994.712 157.32 994.825 157.433 994.825 157.66C994.882 157.83 994.854 158.113 994.74 158.51L987.09 192.85C986.92 193.53 986.779 193.955 986.665 194.125C986.552 194.352 986.439 194.465 986.325 194.465C985.929 194.465 985.362 194.267 984.625 193.87C983.945 193.473 983.01 193.048 981.82 192.595C980.687 192.198 979.185 192 977.315 192H911.95C911.724 192 911.554 191.943 911.44 191.83C911.327 191.717 911.27 191.603 911.27 191.49C911.27 191.207 911.554 191.037 912.12 190.98L920.025 189.79C921.045 189.677 921.782 189.45 922.235 189.11C922.745 188.77 923 188.26 923 187.58V77.42C923 76.74 922.745 76.23 922.235 75.89C921.782 75.55 921.045 75.3233 920.025 75.21L912.12 74.02C911.554 73.9633 911.27 73.7933 911.27 73.51C911.27 73.34 911.327 73.2267 911.44 73.17C911.554 73.0567 911.724 73 911.95 73H951.56C951.787 73 951.957 73.0567 952.07 73.17C952.184 73.2267 952.24 73.34 952.24 73.51C952.24 73.7933 951.957 73.9633 951.39 74.02ZM1057.15 187.58C1057.15 188.26 1057.38 188.77 1057.83 189.11C1058.34 189.45 1059.11 189.677 1060.13 189.79L1068.03 190.98C1068.6 191.037 1068.88 191.207 1068.88 191.49C1068.88 191.66 1068.83 191.802 1068.71 191.915C1068.6 191.972 1068.43 192 1068.2 192H1028.59C1028.37 192 1028.2 191.972 1028.08 191.915C1027.97 191.802 1027.91 191.66 1027.91 191.49C1027.91 191.207 1028.2 191.037 1028.76 190.98L1036.67 189.79C1037.69 189.677 1038.42 189.45 1038.88 189.11C1039.39 188.77 1039.64 188.26 1039.64 187.58V77.42C1039.64 76.74 1039.39 76.23 1038.88 75.89C1038.42 75.55 1037.69 75.3233 1036.67 75.21L1028.76 74.02C1028.2 73.9633 1027.91 73.7933 1027.91 73.51C1027.91 73.34 1027.97 73.2267 1028.08 73.17C1028.2 73.0567 1028.37 73 1028.59 73H1068.2C1068.43 73 1068.6 73.0567 1068.71 73.17C1068.83 73.2267 1068.88 73.34 1068.88 73.51C1068.88 73.7933 1068.6 73.9633 1068.03 74.02L1060.13 75.21C1059.11 75.3233 1058.34 75.55 1057.83 75.89C1057.38 76.23 1057.15 76.74 1057.15 77.42V187.58ZM1203.69 159.275C1203.07 164.318 1201.56 168.993 1199.18 173.3C1196.86 177.607 1193.77 181.347 1189.92 184.52C1186.12 187.693 1181.7 190.158 1176.66 191.915C1171.62 193.672 1166.06 194.55 1160 194.55C1148.95 194.55 1139.37 192 1131.27 186.9C1123.17 181.8 1116.9 174.717 1112.48 165.65C1108.06 156.583 1105.85 146.043 1105.85 134.03C1105.85 124.737 1107.19 116.237 1109.85 108.53C1112.57 100.767 1116.37 94.08 1121.24 88.47C1126.17 82.8033 1132.01 78.44 1138.75 75.38C1145.49 72.32 1152.92 70.79 1161.02 70.79C1166.69 70.79 1171.39 71.4417 1175.13 72.745C1178.87 74.0483 1181.7 75.3517 1183.63 76.655C1185.61 77.9583 1186.77 78.61 1187.11 78.61C1187.68 78.61 1188.47 77.9583 1189.49 76.655C1190.51 75.3517 1191.51 74.0483 1192.47 72.745C1193.43 71.4417 1194.03 70.79 1194.25 70.79C1194.42 70.79 1194.57 70.875 1194.68 71.045C1194.85 71.1583 1194.99 71.4417 1195.1 71.895L1204.03 103.43C1204.14 103.827 1204.14 104.167 1204.03 104.45C1203.97 104.677 1203.8 104.818 1203.52 104.875C1203.24 104.932 1202.95 104.875 1202.67 104.705C1202.44 104.535 1202.22 104.223 1201.99 103.77C1199.1 96.3467 1195.76 90.3683 1191.96 85.835C1188.16 81.245 1183.94 77.9017 1179.29 75.805C1174.7 73.6517 1169.75 72.575 1164.42 72.575C1158.64 72.575 1153.34 73.7933 1148.52 76.23C1143.71 78.6667 1139.51 82.2083 1135.94 86.855C1132.37 91.5017 1129.6 97.225 1127.61 104.025C1125.69 110.768 1124.72 118.503 1124.72 127.23C1124.72 140.263 1126.59 151.257 1130.33 160.21C1134.07 169.107 1139.26 175.878 1145.89 180.525C1152.52 185.115 1160.2 187.41 1168.92 187.41C1177.99 187.41 1185.44 184.86 1191.28 179.76C1197.12 174.603 1201 167.718 1202.92 159.105C1202.98 158.878 1203.04 158.737 1203.09 158.68C1203.15 158.567 1203.24 158.538 1203.35 158.595C1203.52 158.595 1203.63 158.68 1203.69 158.85C1203.75 158.963 1203.75 159.105 1203.69 159.275ZM1254.79 146.015H1299.24L1299.5 147.46H1254.36L1254.79 146.015ZM1256.91 191.49C1256.91 191.603 1256.85 191.717 1256.74 191.83C1256.68 191.943 1256.57 192 1256.4 192H1232.01C1231.84 192 1231.69 191.943 1231.58 191.83C1231.47 191.717 1231.41 191.603 1231.41 191.49C1231.41 191.32 1231.5 191.207 1231.67 191.15C1231.78 191.037 1231.92 190.98 1232.09 190.98L1236 189.79C1237.53 189.28 1239.03 188.26 1240.51 186.73C1241.98 185.143 1243.25 182.508 1244.33 178.825L1273.66 80.82C1274.17 79.12 1274.11 77.76 1273.49 76.74C1272.92 75.72 1271.7 74.955 1269.83 74.445C1269.38 74.1617 1269.01 73.9633 1268.73 73.85C1268.5 73.7367 1268.39 73.6233 1268.39 73.51C1268.39 73.2833 1268.44 73.1417 1268.56 73.085C1268.67 73.0283 1268.84 73 1269.07 73H1295.84C1296.07 73 1296.24 73.0283 1296.35 73.085C1296.46 73.1417 1296.52 73.2833 1296.52 73.51C1296.52 73.6233 1296.41 73.765 1296.18 73.935C1295.95 74.0483 1295.59 74.19 1295.08 74.36C1293.43 74.4733 1292.44 74.785 1292.1 75.295C1291.82 75.7483 1291.9 76.6267 1292.36 77.93L1327.29 186.56C1327.74 187.977 1328.45 189.025 1329.42 189.705C1330.38 190.385 1331.6 190.782 1333.07 190.895C1333.35 190.952 1333.55 191.037 1333.67 191.15C1333.78 191.207 1333.84 191.32 1333.84 191.49C1333.84 191.603 1333.78 191.717 1333.67 191.83C1333.61 191.943 1333.47 192 1333.24 192H1301.37C1301.2 192 1301.05 191.943 1300.94 191.83C1300.83 191.717 1300.77 191.603 1300.77 191.49C1300.77 191.32 1300.86 191.207 1301.03 191.15C1301.2 191.093 1301.39 191.037 1301.62 190.98L1306.21 190.47C1307.51 190.187 1308.34 189.677 1308.68 188.94C1309.02 188.147 1308.99 187.155 1308.59 185.965L1274.68 79.545L1276.38 76.485L1245.78 179.08C1245.15 181.12 1245.07 182.877 1245.52 184.35C1245.97 185.823 1246.85 187.042 1248.16 188.005C1249.46 188.912 1251.07 189.62 1253 190.13L1256.23 190.98C1256.46 191.037 1256.63 191.122 1256.74 191.235C1256.85 191.292 1256.91 191.377 1256.91 191.49ZM1516.1 159.275C1515.47 164.318 1513.97 168.993 1511.59 173.3C1509.27 177.607 1506.18 181.347 1502.33 184.52C1498.53 187.693 1494.11 190.158 1489.07 191.915C1484.02 193.672 1478.47 194.55 1472.41 194.55C1461.36 194.55 1451.78 192 1443.68 186.9C1435.57 181.8 1429.31 174.717 1424.89 165.65C1420.47 156.583 1418.26 146.043 1418.26 134.03C1418.26 124.737 1419.59 116.237 1422.26 108.53C1424.98 100.767 1428.77 94.08 1433.65 88.47C1438.58 82.8033 1444.41 78.44 1451.16 75.38C1457.9 72.32 1465.32 70.79 1473.43 70.79C1479.09 70.79 1483.8 71.4417 1487.54 72.745C1491.28 74.0483 1494.11 75.3517 1496.04 76.655C1498.02 77.9583 1499.18 78.61 1499.52 78.61C1500.09 78.61 1500.88 77.9583 1501.9 76.655C1502.92 75.3517 1503.91 74.0483 1504.88 72.745C1505.84 71.4417 1506.44 70.79 1506.66 70.79C1506.83 70.79 1506.97 70.875 1507.09 71.045C1507.26 71.1583 1507.4 71.4417 1507.51 71.895L1516.44 103.43C1516.55 103.827 1516.55 104.167 1516.44 104.45C1516.38 104.677 1516.21 104.818 1515.93 104.875C1515.64 104.932 1515.36 104.875 1515.08 104.705C1514.85 104.535 1514.62 104.223 1514.4 103.77C1511.51 96.3467 1508.16 90.3683 1504.37 85.835C1500.57 81.245 1496.35 77.9017 1491.7 75.805C1487.11 73.6517 1482.15 72.575 1476.83 72.575C1471.05 72.575 1465.75 73.7933 1460.93 76.23C1456.12 78.6667 1451.92 82.2083 1448.35 86.855C1444.78 91.5017 1442.01 97.225 1440.02 104.025C1438.1 110.768 1437.13 118.503 1437.13 127.23C1437.13 140.263 1439 151.257 1442.74 160.21C1446.48 169.107 1451.67 175.878 1458.3 180.525C1464.93 185.115 1472.61 187.41 1481.33 187.41C1490.4 187.41 1497.85 184.86 1503.69 179.76C1509.52 174.603 1513.41 167.718 1515.33 159.105C1515.39 158.878 1515.45 158.737 1515.5 158.68C1515.56 158.567 1515.64 158.538 1515.76 158.595C1515.93 158.595 1516.04 158.68 1516.1 158.85C1516.15 158.963 1516.15 159.105 1516.1 159.275ZM1567.19 146.015H1611.65L1611.9 147.46H1566.77L1567.19 146.015ZM1569.32 191.49C1569.32 191.603 1569.26 191.717 1569.15 191.83C1569.09 191.943 1568.98 192 1568.81 192H1544.41C1544.24 192 1544.1 191.943 1543.99 191.83C1543.88 191.717 1543.82 191.603 1543.82 191.49C1543.82 191.32 1543.9 191.207 1544.07 191.15C1544.19 191.037 1544.33 190.98 1544.5 190.98L1548.41 189.79C1549.94 189.28 1551.44 188.26 1552.91 186.73C1554.39 185.143 1555.66 182.508 1556.74 178.825L1586.06 80.82C1586.57 79.12 1586.52 77.76 1585.89 76.74C1585.33 75.72 1584.11 74.955 1582.24 74.445C1581.79 74.1617 1581.42 73.9633 1581.13 73.85C1580.91 73.7367 1580.79 73.6233 1580.79 73.51C1580.79 73.2833 1580.85 73.1417 1580.96 73.085C1581.08 73.0283 1581.25 73 1581.47 73H1608.25C1608.48 73 1608.65 73.0283 1608.76 73.085C1608.87 73.1417 1608.93 73.2833 1608.93 73.51C1608.93 73.6233 1608.82 73.765 1608.59 73.935C1608.36 74.0483 1607.99 74.19 1607.48 74.36C1605.84 74.4733 1604.85 74.785 1604.51 75.295C1604.23 75.7483 1604.31 76.6267 1604.76 77.93L1639.7 186.56C1640.15 187.977 1640.86 189.025 1641.82 189.705C1642.79 190.385 1644.01 190.782 1645.48 190.895C1645.76 190.952 1645.96 191.037 1646.07 191.15C1646.19 191.207 1646.24 191.32 1646.24 191.49C1646.24 191.603 1646.19 191.717 1646.07 191.83C1646.02 191.943 1645.88 192 1645.65 192H1613.77C1613.6 192 1613.46 191.943 1613.35 191.83C1613.24 191.717 1613.18 191.603 1613.18 191.49C1613.18 191.32 1613.26 191.207 1613.43 191.15C1613.6 191.093 1613.8 191.037 1614.03 190.98L1618.62 190.47C1619.92 190.187 1620.74 189.677 1621.08 188.94C1621.42 188.147 1621.4 187.155 1621 185.965L1587.08 79.545L1588.78 76.485L1558.18 179.08C1557.56 181.12 1557.48 182.877 1557.93 184.35C1558.38 185.823 1559.26 187.042 1560.56 188.005C1561.87 188.912 1563.48 189.62 1565.41 190.13L1568.64 190.98C1568.87 191.037 1569.04 191.122 1569.15 191.235C1569.26 191.292 1569.32 191.377 1569.32 191.49ZM1770.27 116.86C1770.27 124.567 1768.55 131.282 1765.09 137.005C1761.69 142.672 1756.93 147.092 1750.81 150.265C1744.75 153.382 1737.72 154.94 1729.73 154.94C1724.18 154.94 1719.05 154.288 1714.34 152.985C1709.7 151.682 1705.42 149.585 1701.51 146.695L1701.85 145.76C1704.46 147.573 1707.06 149.018 1709.67 150.095C1712.28 151.115 1714.85 151.852 1717.4 152.305C1719.95 152.702 1722.39 152.9 1724.71 152.9C1730.27 152.9 1735.17 151.427 1739.42 148.48C1743.67 145.477 1747.01 141.227 1749.45 135.73C1751.89 130.233 1753.1 123.802 1753.1 116.435C1753.1 107.595 1751.55 100.03 1748.43 93.74C1745.31 87.45 1740.98 82.6617 1735.42 79.375C1729.93 76.0317 1723.61 74.36 1716.47 74.36H1707.2V187.58C1707.2 188.147 1707.4 188.628 1707.8 189.025C1708.25 189.365 1708.93 189.62 1709.84 189.79L1718.25 190.98C1718.48 191.037 1718.65 191.122 1718.76 191.235C1718.88 191.292 1718.93 191.377 1718.93 191.49C1718.93 191.66 1718.88 191.802 1718.76 191.915C1718.71 191.972 1718.54 192 1718.25 192H1678.73C1678.45 192 1678.25 191.972 1678.13 191.915C1678.02 191.802 1677.96 191.66 1677.96 191.49C1677.96 191.263 1678.22 191.093 1678.73 190.98L1687.14 189.705C1688.05 189.592 1688.7 189.365 1689.1 189.025C1689.5 188.628 1689.69 188.175 1689.69 187.665V77.59C1689.69 76.9667 1689.5 76.4567 1689.1 76.06C1688.7 75.6633 1688.11 75.4083 1687.31 75.295L1678.56 74.02C1678.16 73.9633 1677.96 73.7933 1677.96 73.51C1677.96 73.34 1678.02 73.2267 1678.13 73.17C1678.25 73.0567 1678.42 73 1678.64 73H1716.47C1727.12 73 1736.47 74.8133 1744.52 78.44C1752.62 82.0667 1758.94 87.195 1763.47 93.825C1768.01 100.398 1770.27 108.077 1770.27 116.86ZM1833.97 187.58C1833.97 188.26 1834.2 188.77 1834.65 189.11C1835.16 189.45 1835.93 189.677 1836.95 189.79L1844.85 190.98C1845.42 191.037 1845.7 191.207 1845.7 191.49C1845.7 191.66 1845.65 191.802 1845.53 191.915C1845.42 191.972 1845.25 192 1845.02 192H1805.41C1805.19 192 1805.02 191.972 1804.9 191.915C1804.79 191.802 1804.73 191.66 1804.73 191.49C1804.73 191.207 1805.02 191.037 1805.58 190.98L1813.49 189.79C1814.51 189.677 1815.24 189.45 1815.7 189.11C1816.21 188.77 1816.46 188.26 1816.46 187.58V77.42C1816.46 76.74 1816.21 76.23 1815.7 75.89C1815.24 75.55 1814.51 75.3233 1813.49 75.21L1805.58 74.02C1805.02 73.9633 1804.73 73.7933 1804.73 73.51C1804.73 73.34 1804.79 73.2267 1804.9 73.17C1805.02 73.0567 1805.19 73 1805.41 73H1845.02C1845.25 73 1845.42 73.0567 1845.53 73.17C1845.65 73.2267 1845.7 73.34 1845.7 73.51C1845.7 73.7933 1845.42 73.9633 1844.85 74.02L1836.95 75.21C1835.93 75.3233 1835.16 75.55 1834.65 75.89C1834.2 76.23 1833.97 76.74 1833.97 77.42V187.58ZM1892.36 73H1962.74C1963.76 73 1964.76 72.8017 1965.72 72.405C1966.68 71.9517 1967.5 71.5267 1968.18 71.13C1968.92 70.7333 1969.43 70.535 1969.71 70.535C1969.83 70.535 1969.94 70.62 1970.05 70.79C1970.17 70.96 1970.31 71.4133 1970.48 72.15L1975.83 102.07C1975.95 102.41 1975.98 102.693 1975.92 102.92C1975.86 103.147 1975.75 103.26 1975.58 103.26C1975.41 103.317 1975.24 103.288 1975.07 103.175C1974.96 103.062 1974.84 102.863 1974.73 102.58C1971.67 94.5333 1968.84 88.4983 1966.23 84.475C1963.62 80.395 1961.04 77.7033 1958.49 76.4C1955.94 75.04 1953.31 74.36 1950.59 74.36H1936.82V187.58C1936.82 188.26 1937.05 188.77 1937.5 189.11C1938.01 189.45 1938.77 189.677 1939.79 189.79L1947.7 190.98C1948.27 191.037 1948.55 191.207 1948.55 191.49C1948.55 191.83 1948.32 192 1947.87 192H1908.26C1908.03 192 1907.86 191.943 1907.75 191.83C1907.64 191.717 1907.58 191.603 1907.58 191.49C1907.58 191.207 1907.86 191.037 1908.43 190.98L1916.33 189.79C1917.35 189.677 1918.09 189.45 1918.54 189.11C1919.05 188.77 1919.31 188.26 1919.31 187.58V74.36H1905.54C1902.76 74.36 1900.1 75.125 1897.55 76.655C1895.06 78.1283 1892.51 80.905 1889.9 84.985C1887.29 89.0083 1884.46 94.8733 1881.4 102.58C1881.34 102.863 1881.23 103.062 1881.06 103.175C1880.89 103.288 1880.72 103.317 1880.55 103.26C1880.38 103.26 1880.27 103.147 1880.21 102.92C1880.21 102.693 1880.24 102.41 1880.29 102.07L1885.65 72.15C1885.82 71.4133 1885.96 70.96 1886.07 70.79C1886.19 70.62 1886.3 70.535 1886.41 70.535C1886.64 70.535 1887.04 70.7333 1887.6 71.13C1888.17 71.5267 1888.85 71.9517 1889.64 72.405C1890.49 72.8017 1891.4 73 1892.36 73ZM2019.49 146.015H2063.94L2064.2 147.46H2019.06L2019.49 146.015ZM2021.61 191.49C2021.61 191.603 2021.56 191.717 2021.44 191.83C2021.39 191.943 2021.27 192 2021.1 192H1996.71C1996.54 192 1996.4 191.943 1996.28 191.83C1996.17 191.717 1996.11 191.603 1996.11 191.49C1996.11 191.32 1996.2 191.207 1996.37 191.15C1996.48 191.037 1996.62 190.98 1996.79 190.98L2000.7 189.79C2002.23 189.28 2003.73 188.26 2005.21 186.73C2006.68 185.143 2007.96 182.508 2009.03 178.825L2038.36 80.82C2038.87 79.12 2038.81 77.76 2038.19 76.74C2037.62 75.72 2036.4 74.955 2034.53 74.445C2034.08 74.1617 2033.71 73.9633 2033.43 73.85C2033.2 73.7367 2033.09 73.6233 2033.09 73.51C2033.09 73.2833 2033.14 73.1417 2033.26 73.085C2033.37 73.0283 2033.54 73 2033.77 73H2060.54C2060.77 73 2060.94 73.0283 2061.05 73.085C2061.17 73.1417 2061.22 73.2833 2061.22 73.51C2061.22 73.6233 2061.11 73.765 2060.88 73.935C2060.66 74.0483 2060.29 74.19 2059.78 74.36C2058.13 74.4733 2057.14 74.785 2056.8 75.295C2056.52 75.7483 2056.6 76.6267 2057.06 77.93L2091.99 186.56C2092.45 187.977 2093.15 189.025 2094.12 189.705C2095.08 190.385 2096.3 190.782 2097.77 190.895C2098.06 190.952 2098.25 191.037 2098.37 191.15C2098.48 191.207 2098.54 191.32 2098.54 191.49C2098.54 191.603 2098.48 191.717 2098.37 191.83C2098.31 191.943 2098.17 192 2097.94 192H2066.07C2065.9 192 2065.76 191.943 2065.64 191.83C2065.53 191.717 2065.47 191.603 2065.47 191.49C2065.47 191.32 2065.56 191.207 2065.73 191.15C2065.9 191.093 2066.1 191.037 2066.32 190.98L2070.91 190.47C2072.22 190.187 2073.04 189.677 2073.38 188.94C2073.72 188.147 2073.69 187.155 2073.29 185.965L2039.38 79.545L2041.08 76.485L2010.48 179.08C2009.85 181.12 2009.77 182.877 2010.22 184.35C2010.68 185.823 2011.55 187.042 2012.86 188.005C2014.16 188.912 2015.78 189.62 2017.7 190.13L2020.93 190.98C2021.16 191.037 2021.33 191.122 2021.44 191.235C2021.56 191.292 2021.61 191.377 2021.61 191.49ZM2170.38 74.02L2162.47 75.21C2161.45 75.3233 2160.69 75.55 2160.18 75.89C2159.72 76.23 2159.5 76.74 2159.5 77.42V187.24C2159.5 188.43 2159.84 189.28 2160.52 189.79C2161.25 190.3 2162.3 190.555 2163.66 190.555H2185C2187.72 190.555 2190.21 190.073 2192.48 189.11C2194.74 188.147 2196.93 186.418 2199.02 183.925C2201.18 181.432 2203.36 177.833 2205.57 173.13L2212.62 158C2212.79 157.717 2212.93 157.518 2213.05 157.405C2213.16 157.292 2213.3 157.263 2213.47 157.32C2213.7 157.32 2213.81 157.433 2213.81 157.66C2213.87 157.83 2213.84 158.113 2213.73 158.51L2206.08 192.85C2205.91 193.53 2205.77 193.955 2205.65 194.125C2205.54 194.352 2205.43 194.465 2205.31 194.465C2204.92 194.465 2204.35 194.267 2203.61 193.87C2202.93 193.473 2202 193.048 2200.81 192.595C2199.67 192.198 2198.17 192 2196.3 192H2130.94C2130.71 192 2130.54 191.943 2130.43 191.83C2130.31 191.717 2130.26 191.603 2130.26 191.49C2130.26 191.207 2130.54 191.037 2131.11 190.98L2139.01 189.79C2140.03 189.677 2140.77 189.45 2141.22 189.11C2141.73 188.77 2141.99 188.26 2141.99 187.58V77.42C2141.99 76.74 2141.73 76.23 2141.22 75.89C2140.77 75.55 2140.03 75.3233 2139.01 75.21L2131.11 74.02C2130.54 73.9633 2130.26 73.7933 2130.26 73.51C2130.26 73.34 2130.31 73.2267 2130.43 73.17C2130.54 73.0567 2130.71 73 2130.94 73H2170.55C2170.77 73 2170.94 73.0567 2171.06 73.17C2171.17 73.2267 2171.23 73.34 2171.23 73.51C2171.23 73.7933 2170.94 73.9633 2170.38 74.02Z" fill="black"/>
<defs>
<linearGradient id="paint0_linear_10_36" x1="146.985" y1="124.171" x2="146.985" y2="258" gradientUnits="userSpaceOnUse">
<stop stop-color="#538DE8"/>
<stop offset="1" stop-color="#3AC2E2"/>
</linearGradient>
</defs>
</svg>
