<svg width="182" height="34" viewBox="0 0 182 34" fill="none" xmlns="http://www.w3.org/2000/svg">
<g clip-path="url(#clip0_5548_15178)">
<path d="M56.2631 23.6503C58.8442 23.6503 61.1671 21.8722 61.7981 19.4345L66.3006 20.0368C65.6123 24.5393 61.3679 27.78 56.1484 27.78C49.8391 27.78 45.2505 23.1914 45.2505 16.8535C45.2505 10.5155 49.8391 5.92687 56.1484 5.92687C61.3105 5.92687 65.555 9.2536 66.3006 13.8709L61.7694 14.3871C61.1958 11.8634 58.9015 10.0566 56.2631 10.0566C52.6209 10.0566 50.0685 12.8671 50.0685 16.8535C50.0685 20.8398 52.6496 23.6503 56.2631 23.6503ZM76.1397 11.806C80.9864 11.806 84.3131 15.018 84.3131 19.7213C84.3131 24.3959 80.9864 27.6366 76.1397 27.6366C71.3216 27.6366 67.9949 24.3959 67.9949 19.7213C67.9949 15.018 71.3216 11.806 76.1397 11.806ZM76.1397 23.851C78.4053 23.851 79.9826 22.1303 79.9826 19.7213C79.9826 17.3123 78.4053 15.5916 76.1397 15.5916C73.9027 15.5916 72.3254 17.3123 72.3254 19.7213C72.3254 22.1303 73.9027 23.851 76.1397 23.851ZM90.805 27.0631H86.5032V12.3796H90.6329V14.129C91.5506 12.6377 93.1566 11.806 94.9347 11.806C97.057 11.806 98.835 12.8098 99.6667 14.4158C100.613 12.8098 102.563 11.806 104.599 11.806C107.926 11.806 110.249 14.301 110.249 17.8285V27.0631H105.947V18.6889C105.947 16.9395 104.858 15.6489 103.223 15.5916C101.56 15.5916 100.441 16.8821 100.441 18.6889V27.0631H96.1392V18.6889C96.1392 16.8248 95.1068 15.5916 93.5008 15.5916C91.8661 15.5916 90.805 16.8248 90.805 18.6889V27.0631ZM120.81 23.765C123.047 23.765 124.653 22.0443 124.653 19.7213C124.653 17.3697 123.018 15.6776 120.81 15.6776C118.573 15.6776 116.967 17.3983 116.967 19.7213C116.967 22.0443 118.573 23.765 120.81 23.765ZM128.955 19.7213C128.955 24.3673 126.087 27.6366 121.986 27.6366C119.978 27.6366 118.315 26.7763 117.139 25.285V33.6592H112.837V12.3796H117.082V14.1577C118.257 12.695 119.949 11.806 121.986 11.806C126.058 11.806 128.955 15.0754 128.955 19.7213ZM138.646 23.851C140.883 23.851 142.489 22.1017 142.489 19.7213C142.489 17.341 140.883 15.5916 138.646 15.5916C136.409 15.5916 134.803 17.341 134.803 19.7213C134.803 22.1017 136.409 23.851 138.646 23.851ZM142.518 14.4158V12.3796H146.82V27.0631H142.518V25.0269C141.371 26.6616 139.621 27.6366 137.528 27.6366C133.398 27.6366 130.502 24.3673 130.502 19.7213C130.502 15.0754 133.398 11.806 137.528 11.806C139.621 11.806 141.371 12.7811 142.518 14.4158ZM149.681 12.3796H153.869V14.3584C154.901 12.7811 156.622 11.806 158.543 11.806C161.841 11.806 164.078 14.3584 164.078 17.8859V27.0631H159.776V18.6315C159.776 16.8535 158.744 15.5916 157.052 15.5916C155.36 15.5916 153.983 16.9395 153.983 18.8036V27.0631H149.681V12.3796ZM167.292 33.1716V29.9883C167.808 30.1604 168.525 30.2751 169.042 30.2751C170.877 30.2751 171.594 28.9845 172.254 27.2065L165.313 12.3796H170.017L174.003 21.8435L177.272 12.3796H181.746L176.068 27.5793C174.691 31.3649 173.114 33.6878 170.131 33.6878C169.214 33.6878 168.095 33.4871 167.292 33.1716Z" fill="#474B64"/>
<path fill-rule="evenodd" clip-rule="evenodd" d="M12.1949 1.19268C10.9537 1.19268 9.94746 2.19888 9.94746 3.44009V10.8214H2.43162C1.19041 10.8214 0.184204 11.8276 0.184204 13.0688V30.4614C0.184204 31.7026 1.19041 32.7088 2.43162 32.7088H19.6196C20.8608 32.7088 21.867 31.7026 21.867 30.4614V23.0801H29.3829C30.6241 23.0801 31.6303 22.0739 31.6303 20.8326V3.44009C31.6303 2.19888 30.6241 1.19268 29.3829 1.19268H12.1949ZM21.867 23.0801V13.0688C21.867 11.8276 20.8608 10.8214 19.6196 10.8214H9.94746V20.8326C9.94746 22.0739 10.9537 23.0801 12.1949 23.0801H21.867Z" fill="#474B64"/>
</g>
<defs>
<clipPath id="clip0_5548_15178">
<rect width="182" height="34" fill="white"/>
</clipPath>
</defs>
</svg>
