<svg width="190" height="36" viewBox="0 0 190 36" fill="none" xmlns="http://www.w3.org/2000/svg">
<g clip-path="url(#clip0_5548_15182)">
<path d="M51.3545 19.3166V24.192H61.3347V28.0636H46.7086V7.64436H61.0479V11.516H51.3545V15.8751H59.9008V19.3166H51.3545ZM63.6776 13.3801H67.8647V15.3589C68.8972 13.7816 70.6179 12.8065 72.5394 12.8065C75.8374 12.8065 78.0743 15.3589 78.0743 18.8864V28.0636H73.7725V19.6321C73.7725 17.854 72.7401 16.5921 71.0481 16.5921C69.356 16.5921 67.9794 17.94 67.9794 19.8041V28.0636H63.6776V13.3801ZM81.7759 23.3029V16.6495H79.711V13.3801H81.9767L82.4642 9.68055H86.0777V13.3801H89.4044V16.6495H86.0777V22.8727C86.0777 24.1059 86.8234 24.9376 88.0279 24.9376C88.4294 24.9376 89.0603 24.8516 89.5478 24.7082V28.1783C88.6588 28.4651 87.5116 28.6372 86.5939 28.6372C83.6687 28.6372 81.7759 26.4289 81.7759 23.3029ZM95.5128 19.3453H102.74C102.482 17.4812 101.048 16.1046 99.0976 16.1046C97.2048 16.1046 95.8856 17.3951 95.5128 19.3453ZM91.0963 20.6071C91.0963 16.0185 94.4517 12.8065 99.1836 12.8065C103.887 12.8065 107.099 16.0185 107.099 20.6645C107.099 21.0373 107.099 21.6396 107.042 21.955L95.5414 21.9263C95.9143 23.9912 97.3195 25.3391 99.2697 25.3391C100.876 25.3391 102.224 24.4214 102.682 23.1309L106.554 23.6757C105.837 26.5436 102.74 28.6372 99.155 28.6372C94.423 28.6372 91.0963 25.3391 91.0963 20.6071ZM109.296 13.3801H113.426V15.2442C114.286 13.7816 115.748 12.8352 117.355 12.8352C117.928 12.8352 118.53 12.9786 119.104 13.208V17.0223C118.301 16.6781 117.326 16.5061 116.695 16.5061C114.831 16.5061 113.598 18.0547 113.598 20.263V28.0636H109.296V13.3801ZM128.703 24.7655C130.94 24.7655 132.546 23.0448 132.546 20.7218C132.546 18.3702 130.911 16.6781 128.703 16.6781C126.466 16.6781 124.86 18.3989 124.86 20.7218C124.86 23.0448 126.466 24.7655 128.703 24.7655ZM136.848 20.7218C136.848 25.3678 133.98 28.6372 129.879 28.6372C127.871 28.6372 126.208 27.7768 125.032 26.2855V34.6597H120.73V13.3801H124.975V15.1582C126.151 13.6956 127.843 12.8065 129.879 12.8065C133.951 12.8065 136.848 16.0759 136.848 20.7218ZM139.054 13.3801H143.184V15.2442C144.044 13.7816 145.507 12.8352 147.113 12.8352C147.687 12.8352 148.289 12.9786 148.863 13.208V17.0223C148.06 16.6781 147.084 16.5061 146.454 16.5061C144.589 16.5061 143.356 18.0547 143.356 20.263V28.0636H139.054V13.3801ZM150.833 13.3801H155.135V28.0636H150.833V13.3801ZM152.984 11.4299C151.521 11.4299 150.489 10.4262 150.489 8.99226C150.489 7.58701 151.521 6.58325 152.984 6.58325C154.447 6.58325 155.479 7.58701 155.479 8.99226C155.479 10.4262 154.447 11.4299 152.984 11.4299ZM171.559 23.4176C171.559 26.4863 168.749 28.6945 164.648 28.6945C160.69 28.6945 157.822 26.3715 157.851 23.1595H161.493C161.493 24.6221 162.841 25.6546 164.705 25.6546C166.283 25.6546 167.43 24.9089 167.43 23.9339C167.43 22.7007 165.766 22.3565 163.988 22.1845C160.719 21.783 157.994 21.2667 157.994 17.6819C157.994 14.814 160.719 12.7492 164.304 12.7492C168.233 12.7492 171.072 14.8714 171.072 17.8253H167.286C167.286 16.6208 165.996 15.7891 164.275 15.7891C162.956 15.7891 161.895 16.4774 161.866 17.4525C161.866 18.4275 163.157 18.7143 164.82 18.9724C167.803 19.3739 171.559 19.9762 171.559 23.4176ZM177.507 19.3453H184.734C184.476 17.4812 183.042 16.1046 181.092 16.1046C179.199 16.1046 177.88 17.3951 177.507 19.3453ZM173.09 20.6071C173.09 16.0185 176.446 12.8065 181.178 12.8065C185.881 12.8065 189.093 16.0185 189.093 20.6645C189.093 21.0373 189.093 21.6396 189.036 21.955L177.536 21.9263C177.908 23.9912 179.314 25.3391 181.264 25.3391C182.87 25.3391 184.218 24.4214 184.677 23.1309L188.548 23.6757C187.831 26.5436 184.734 28.6372 181.149 28.6372C176.417 28.6372 173.09 25.3391 173.09 20.6071Z" fill="#474B64"/>
<g clip-path="url(#clip1_5548_15182)">
<path fill-rule="evenodd" clip-rule="evenodd" d="M0.262608 23.9858C0.262608 24.9706 1.26006 25.6418 2.17236 25.271L12.4543 21.0913C12.9772 20.8788 13.3192 20.3706 13.3192 19.8061L13.3192 15.1619C13.3192 14.5974 13.6611 14.0892 14.184 13.8767L24.6375 9.62731C25.1604 9.41475 25.5024 8.90657 25.5024 8.34212L25.5024 2.91404C25.5024 2.14785 24.8812 1.52673 24.115 1.52673L13.8331 1.52672C13.0669 1.52672 12.4458 2.14785 12.4458 2.91404L12.4458 11.6034C12.4458 12.3696 11.8247 12.9907 11.0585 12.9907L1.64993 12.9907C0.883732 12.9907 0.262609 13.6119 0.262609 14.378L0.262608 23.9858Z" fill="#474B64"/>
<path fill-rule="evenodd" clip-rule="evenodd" d="M34.7376 10.073C34.7376 9.08823 33.7401 8.41698 32.8278 8.78784L22.5459 12.9675C22.023 13.18 21.681 13.6882 21.681 14.2527V18.8969C21.681 19.4613 21.339 19.9695 20.8161 20.1821L10.3627 24.4314C9.83982 24.644 9.49783 25.1522 9.49783 25.7166V31.1447C9.49783 31.9109 10.119 32.532 10.8852 32.532H21.1671C21.9333 32.532 22.5544 31.9109 22.5544 31.1447V22.4554C22.5544 21.6892 23.1755 21.0681 23.9417 21.0681H33.3503C34.1165 21.0681 34.7376 20.4469 34.7376 19.6807V10.073Z" fill="#474B64"/>
</g>
</g>
<defs>
<clipPath id="clip0_5548_15182">
<rect width="190" height="36" fill="white"/>
</clipPath>
<clipPath id="clip1_5548_15182">
<rect width="35.7713" height="35.7713" fill="white" transform="translate(-0.38562 0.114368)"/>
</clipPath>
</defs>
</svg>
