<svg width="230" height="34" viewBox="0 0 230 34" fill="none" xmlns="http://www.w3.org/2000/svg">
<g clip-path="url(#clip0_5548_15180)">
<path d="M56.5361 27.2801C49.8253 27.2801 45.2367 22.8349 45.2367 16.3535C45.2367 9.90083 49.8253 5.42696 56.5361 5.42696C63.2183 5.42696 67.8355 9.90083 67.8355 16.3535C67.8355 22.8349 63.2183 27.2801 56.5361 27.2801ZM56.5361 9.55669C52.7219 9.55669 50.0548 12.3672 50.0548 16.3535C50.0548 20.3399 52.7219 23.1217 56.5361 23.1504C60.3504 23.1504 63.0175 20.3399 63.0175 16.3535C63.0175 12.3672 60.3504 9.55669 56.5361 9.55669ZM70.2098 11.8797H74.3396V13.7438C75.1999 12.2812 76.6625 11.3348 78.2685 11.3348C78.8421 11.3348 79.4444 11.4782 80.0179 11.7076V15.5219C79.2149 15.1777 78.2399 15.0056 77.6089 15.0056C75.7448 15.0056 74.5116 16.5543 74.5116 18.7625V26.5631H70.2098V11.8797ZM89.1295 23.2364C91.3664 23.2364 92.9724 21.5444 92.9724 19.2214C92.9724 16.8411 91.3664 15.0917 89.1295 15.0917C86.8925 15.0917 85.2865 16.8411 85.2865 19.2214C85.2865 21.5444 86.8925 23.2364 89.1295 23.2364ZM89.0721 30.3201C91.2517 30.3201 92.8003 28.8288 92.8003 26.2764V24.527C91.6532 25.9322 89.9898 26.7639 87.9536 26.7639C83.91 26.7639 80.9847 23.6666 80.9847 19.2214C80.9847 14.6041 83.91 11.3348 87.9536 11.3348C90.0185 11.3348 91.6819 12.1951 92.8003 13.6291V11.8797H97.1021V26.3911C97.1021 30.951 93.8901 33.7328 89.2442 33.7328C85.2292 33.7328 81.9885 31.2665 81.5583 27.8824L85.4012 27.4522C85.7741 29.1156 87.3227 30.3201 89.0721 30.3201ZM107.454 23.3511C109.691 23.3511 111.297 21.6017 111.297 19.2214C111.297 16.8411 109.691 15.0917 107.454 15.0917C105.217 15.0917 103.611 16.8411 103.611 19.2214C103.611 21.6017 105.217 23.3511 107.454 23.3511ZM111.325 13.9158V11.8797H115.627V26.5631H111.325V24.527C110.178 26.1616 108.429 27.1367 106.335 27.1367C102.205 27.1367 99.3088 23.8674 99.3088 19.2214C99.3088 14.5755 102.205 11.3061 106.335 11.3061C108.429 11.3061 110.178 12.2812 111.325 13.9158ZM118.489 11.8797H122.676V13.8585C123.708 12.2812 125.429 11.3061 127.35 11.3061C130.648 11.3061 132.885 13.8585 132.885 17.386V26.5631H128.584V18.1316C128.584 16.3535 127.551 15.0917 125.859 15.0917C124.167 15.0917 122.79 16.4396 122.79 18.3037V26.5631H118.489V11.8797ZM135.813 11.8797H140.114V26.5631H135.813V11.8797ZM137.963 9.92951C136.501 9.92951 135.468 8.92576 135.468 7.49182C135.468 6.08657 136.501 5.08282 137.963 5.08282C139.426 5.08282 140.458 6.08657 140.458 7.49182C140.458 8.92576 139.426 9.92951 137.963 9.92951ZM142.773 23.7526L150.258 15.4071H143.06V11.8797H156.166V14.6902L148.939 23.0357H156.453V26.5631H142.773V23.7526ZM166.271 23.3511C168.508 23.3511 170.114 21.6017 170.114 19.2214C170.114 16.8411 168.508 15.0917 166.271 15.0917C164.034 15.0917 162.428 16.8411 162.428 19.2214C162.428 21.6017 164.034 23.3511 166.271 23.3511ZM170.142 13.9158V11.8797H174.444V26.5631H170.142V24.527C168.995 26.1616 167.246 27.1367 165.152 27.1367C161.022 27.1367 158.126 23.8674 158.126 19.2214C158.126 14.5755 161.022 11.3061 165.152 11.3061C167.246 11.3061 168.995 12.2812 170.142 13.9158ZM178.424 21.8025V15.149H176.359V11.8797H178.625L179.112 8.18011H182.726V11.8797H186.053V15.149H182.726V21.3723C182.726 22.6055 183.472 23.4372 184.676 23.4372C185.078 23.4372 185.709 23.3511 186.196 23.2077V26.6779C185.307 26.9647 184.16 27.1367 183.242 27.1367C180.317 27.1367 178.424 24.9285 178.424 21.8025ZM188.748 11.8797H193.05V26.5631H188.748V11.8797ZM190.899 9.92951C189.437 9.92951 188.404 8.92576 188.404 7.49182C188.404 6.08657 189.437 5.08282 190.899 5.08282C192.362 5.08282 193.394 6.08657 193.394 7.49182C193.394 8.92576 192.362 9.92951 190.899 9.92951ZM203.71 11.3061C208.557 11.3061 211.884 14.5181 211.884 19.2214C211.884 23.896 208.557 27.1367 203.71 27.1367C198.892 27.1367 195.565 23.896 195.565 19.2214C195.565 14.5181 198.892 11.3061 203.71 11.3061ZM203.71 23.3511C205.976 23.3511 207.553 21.6304 207.553 19.2214C207.553 16.8124 205.976 15.0917 203.71 15.0917C201.473 15.0917 199.896 16.8124 199.896 19.2214C199.896 21.6304 201.473 23.3511 203.71 23.3511ZM214.074 11.8797H218.261V13.8585C219.293 12.2812 221.014 11.3061 222.935 11.3061C226.234 11.3061 228.47 13.8585 228.47 17.386V26.5631H224.169V18.1316C224.169 16.3535 223.136 15.0917 221.444 15.0917C219.752 15.0917 218.376 16.4396 218.376 18.3037V26.5631H214.074V11.8797Z" fill="#474B64"/>
<path d="M14.8161 3.70545C14.8161 2.6079 13.9224 1.70433 12.8349 1.8525C11.5887 2.02228 10.3667 2.35193 9.1997 2.83533C7.41908 3.57289 5.80116 4.65395 4.43833 6.01678C3.0755 7.37961 1.99444 8.99752 1.25688 10.7781C0.519325 12.5588 0.139709 14.4672 0.139709 16.3946C0.139709 18.3219 0.519325 20.2304 1.25688 22.011C1.99444 23.7916 3.0755 25.4095 4.43833 26.7724C5.80116 28.1352 7.41908 29.2163 9.1997 29.9538C10.9803 30.6914 12.8888 31.071 14.8161 31.071L14.8161 24.0263C13.8139 24.0263 12.8215 23.8289 11.8956 23.4454C10.9697 23.0618 10.1283 22.4997 9.41967 21.791C8.711 21.0823 8.14885 20.241 7.76532 19.3151C7.38179 18.3892 7.18439 17.3968 7.18439 16.3946C7.18439 15.3924 7.38179 14.4 7.76532 13.474C8.14885 12.5481 8.711 11.7068 9.41967 10.9981C10.1283 10.2894 10.9697 9.7273 11.8956 9.34377C12.2073 9.21464 12.5266 9.10662 12.8512 9.02012C13.9118 8.73754 14.8161 7.87309 14.8161 6.77554L14.8161 3.70545Z" fill="#474B64"/>
<path d="M27.3078 16.3947C28.4053 16.3947 29.3089 17.2884 29.1607 18.3759C28.9909 19.6221 28.6613 20.844 28.1779 22.0111C27.4403 23.7917 26.3593 25.4096 24.9964 26.7724C23.6336 28.1353 22.0157 29.2163 20.2351 29.9539C18.4544 30.6915 16.546 31.0711 14.6186 31.0711L14.6186 24.0264C15.6208 24.0264 16.6132 23.829 17.5392 23.4455C18.4651 23.0619 19.3064 22.4998 20.0151 21.7911C20.7238 21.0824 21.2859 20.2411 21.6694 19.3152C21.7986 19.0035 21.9066 18.6842 21.9931 18.3596C22.2757 17.299 23.1401 16.3947 24.2377 16.3947L27.3078 16.3947Z" fill="#474B64"/>
<path d="M29.7831 1.72478C30.8806 1.72478 31.7842 2.61852 31.636 3.70602C31.4663 4.95221 31.1366 6.17417 30.6532 7.34121C29.9157 9.12183 28.8346 10.7397 27.4718 12.1026C26.1089 13.4654 24.491 14.5465 22.7104 15.284C21.5434 15.7674 20.3214 16.0971 19.0752 16.2669C17.9877 16.415 17.094 15.5115 17.094 14.4139L17.094 11.3438C17.094 10.2463 17.9983 9.38182 19.0589 9.09923C19.3835 9.01274 19.7028 8.90471 20.0145 8.77559C20.9404 8.39206 21.7818 7.82991 22.4904 7.12124C23.1991 6.41256 23.7612 5.57125 24.1448 4.64532C24.2739 4.3336 24.3819 4.01434 24.4684 3.68971C24.751 2.62916 25.6154 1.72479 26.713 1.72479L29.7831 1.72478Z" fill="#474B64"/>
</g>
<defs>
<clipPath id="clip0_5548_15180">
<rect width="230" height="34" fill="white"/>
</clipPath>
</defs>
</svg>
