<svg width="152" height="32" viewBox="0 0 152 32" fill="none" xmlns="http://www.w3.org/2000/svg">
<g clip-path="url(#clip0_5548_15179)">
<path d="M62.9028 17.6964C62.9028 21.8835 59.4327 24.78 54.2419 24.78C49.051 24.78 45.3228 21.6541 45.3228 17.3522H49.6533C49.6533 19.5605 51.6321 21.1378 54.3852 21.1378C56.7369 21.1378 58.1995 19.962 58.1995 18.3273C58.1995 16.4059 55.9913 16.1191 53.4675 15.8036C49.4238 15.2874 45.5235 14.427 45.5235 9.66636C45.5235 5.68002 48.9363 2.92687 53.869 2.92687C58.8304 2.92687 62.4153 5.90945 62.4153 10.0105H58.2282C58.2569 8.003 56.4501 6.56906 53.9837 6.56906C51.7181 6.56906 50.2268 7.63017 50.2268 9.12146C50.2268 11.0429 52.263 11.3297 54.8441 11.6739C58.8018 12.1327 62.9028 12.9931 62.9028 17.6964ZM65.951 19.3024V12.6489H63.8862V9.37957H66.1518L66.6393 5.68002H70.2528V9.37957H73.5796V12.6489H70.2528V18.8722C70.2528 20.1054 70.9985 20.9371 72.203 20.9371C72.6045 20.9371 73.2354 20.851 73.723 20.7077V24.1778C72.8339 24.4646 71.6868 24.6366 70.7691 24.6366C67.8438 24.6366 65.951 22.4284 65.951 19.3024ZM83.4161 20.851C85.6531 20.851 87.2591 19.1016 87.2591 16.7213C87.2591 14.341 85.6531 12.5916 83.4161 12.5916C81.1792 12.5916 79.5732 14.341 79.5732 16.7213C79.5732 19.1016 81.1792 20.851 83.4161 20.851ZM87.2878 11.4158V9.37957H91.5896V24.0631H87.2878V22.0269C86.1406 23.6616 84.3912 24.6366 82.2977 24.6366C78.1679 24.6366 75.2714 21.3673 75.2714 16.7213C75.2714 12.0754 78.1679 8.806 82.2977 8.806C84.3912 8.806 86.1406 9.78107 87.2878 11.4158ZM94.4512 9.37957H98.5809V11.2437C99.4413 9.78107 100.904 8.83468 102.51 8.83468C103.083 8.83468 103.686 8.97807 104.259 9.2075V13.0218C103.456 12.6776 102.481 12.5055 101.85 12.5055C99.9861 12.5055 98.753 14.0542 98.753 16.2625V24.0631H94.4512V9.37957ZM107.004 19.3024V12.6489H104.939V9.37957H107.205L107.692 5.68002H111.306V9.37957H114.633V12.6489H111.306V18.8722C111.306 20.1054 112.052 20.9371 113.256 20.9371C113.658 20.9371 114.289 20.851 114.776 20.7077V24.1778C113.887 24.4646 112.74 24.6366 111.822 24.6366C108.897 24.6366 107.004 22.4284 107.004 19.3024ZM131.094 24.0631H126.907V22.0556C125.874 23.6616 124.154 24.6366 122.232 24.6366C118.934 24.6366 116.697 22.0842 116.697 18.5568V9.37957H120.999V17.8111C120.999 19.5892 122.032 20.851 123.724 20.851C125.416 20.851 126.792 19.5031 126.792 17.639V9.37957H131.094V24.0631ZM141.937 20.765C144.174 20.765 145.78 19.0443 145.78 16.7213C145.78 14.3697 144.145 12.6776 141.937 12.6776C139.7 12.6776 138.094 14.3983 138.094 16.7213C138.094 19.0443 139.7 20.765 141.937 20.765ZM150.081 16.7213C150.081 21.3673 147.213 24.6366 143.112 24.6366C141.105 24.6366 139.442 23.7763 138.266 22.285V30.6592H133.964V9.37957H138.208V11.1577C139.384 9.69504 141.076 8.806 143.112 8.806C147.185 8.806 150.081 12.0754 150.081 16.7213Z" fill="#474B64"/>
<path d="M1.26996 23.0386L1.06393 22.8267C0.258239 21.9984 0.26867 20.676 1.08732 19.8605L9.96008 11.0211C10.7824 10.2019 12.1119 10.2005 12.9358 11.0181L17.1866 15.2359L23.9947 8.33886H19.2968C18.1314 8.33886 17.1866 7.39407 17.1866 6.22861V6.08838C17.1866 4.92292 18.1314 3.97813 19.2968 3.97813H29.4934C30.6589 3.97813 31.6037 4.92292 31.6037 6.08838V16.285C31.6037 17.4504 30.6589 18.3952 29.4934 18.3952H29.1752C28.0098 18.3952 27.065 17.4504 27.065 16.285V11.4982L18.9422 19.5844C17.9664 20.5558 16.3933 20.5695 15.4007 19.6154L12.0461 16.3908C11.7135 16.0711 11.1858 16.0777 10.8613 16.4056L4.28248 23.0518C3.45156 23.8913 2.09347 23.8853 1.26996 23.0386Z" fill="#474B64"/>
</g>
<defs>
<clipPath id="clip0_5548_15179">
<rect width="152" height="32" fill="white"/>
</clipPath>
</defs>
</svg>
