<svg width="150" height="32" viewBox="0 0 150 32" fill="none" xmlns="http://www.w3.org/2000/svg">
<g clip-path="url(#clip0_5548_15183)">
<path d="M38.7681 5.64679H43.7868L49.0064 22.5099L54.1972 5.64679H59.216L52.6772 26.066H45.3355L38.7681 5.64679ZM63.0652 17.3477H70.2922C70.0341 15.4836 68.6002 14.107 66.65 14.107C64.7572 14.107 63.438 15.3975 63.0652 17.3477ZM58.6487 18.6096C58.6487 14.021 62.0041 10.809 66.7361 10.809C71.4394 10.809 74.6514 14.021 74.6514 18.6669C74.6514 19.0397 74.6514 19.642 74.594 19.9575L63.0939 19.9288C63.4667 21.9936 64.872 23.3415 66.8221 23.3415C68.4281 23.3415 69.776 22.4238 70.2349 21.1333L74.1065 21.6782C73.3895 24.546 70.2922 26.6396 66.7074 26.6396C61.9754 26.6396 58.6487 23.3415 58.6487 18.6096ZM76.8482 11.3825H81.0353V13.3614C82.0677 11.784 83.7885 10.809 85.7099 10.809C89.008 10.809 91.2449 13.3614 91.2449 16.8888V26.066H86.9431V17.6345C86.9431 15.8564 85.9107 14.5945 84.2186 14.5945C82.5266 14.5945 81.15 15.9424 81.15 17.8066V26.066H76.8482V11.3825ZM94.9465 21.3054V14.6519H92.8816V11.3825H95.1472L95.6348 7.68298H99.2483V11.3825H102.575V14.6519H99.2483V20.8752C99.2483 22.1084 99.9939 22.94 101.198 22.94C101.6 22.94 102.231 22.854 102.718 22.7106V26.1807C101.829 26.4675 100.682 26.6396 99.7645 26.6396C96.8393 26.6396 94.9465 24.4313 94.9465 21.3054ZM119.036 26.066H114.849V24.0585C113.817 25.6645 112.096 26.6396 110.175 26.6396C106.877 26.6396 104.64 24.0872 104.64 20.5597V11.3825H108.941V19.8141C108.941 21.5921 109.974 22.854 111.666 22.854C113.358 22.854 114.735 21.5061 114.735 19.642V11.3825H119.036V26.066ZM121.906 11.3825H126.036V13.2466C126.896 11.784 128.359 10.8376 129.965 10.8376C130.539 10.8376 131.141 10.981 131.714 11.2105V15.0247C130.911 14.6806 129.936 14.5085 129.305 14.5085C127.441 14.5085 126.208 16.0572 126.208 18.2654V26.066H121.906V11.3825ZM137.098 17.3477H144.325C144.067 15.4836 142.633 14.107 140.682 14.107C138.79 14.107 137.47 15.3975 137.098 17.3477ZM132.681 18.6096C132.681 14.021 136.037 10.809 140.769 10.809C145.472 10.809 148.684 14.021 148.684 18.6669C148.684 19.0397 148.684 19.642 148.626 19.9575L137.126 19.9288C137.499 21.9936 138.904 23.3415 140.855 23.3415C142.461 23.3415 143.808 22.4238 144.267 21.1333L148.139 21.6782C147.422 24.546 144.325 26.6396 140.74 26.6396C136.008 26.6396 132.681 23.3415 132.681 18.6096Z" fill="#474B64"/>
<g clip-path="url(#clip1_5548_15183)">
<path fill-rule="evenodd" clip-rule="evenodd" d="M11.4735 0.843551C10.9421 0.843551 10.5112 1.27439 10.5112 1.80586L10.5112 10.9478C4.93079 10.9478 0.406952 15.4717 0.406952 21.0521C0.406952 26.6325 4.93078 31.1564 10.5112 31.1564H19.6532C20.1846 31.1564 20.6155 30.7255 20.6155 30.194L20.6155 21.0521C26.1959 21.0521 30.7197 16.5283 30.7197 10.9478C30.7197 5.36739 26.1959 0.843551 20.6155 0.843551H11.4735ZM20.6155 21.0521L20.6155 11.9101C20.6155 11.3787 20.1846 10.9478 19.6532 10.9478H10.5112L10.5112 20.0898C10.5112 20.6212 10.9421 21.0521 11.4735 21.0521H20.6155Z" fill="#474B64"/>
<path d="M11.3651 0.843551C10.8936 0.843551 10.5113 1.22585 10.5113 1.69743L10.5113 10.9478H19.7616C20.2332 10.9478 20.6155 11.3301 20.6155 11.8017L20.6155 21.0521C26.196 21.0521 30.7198 16.5283 30.7198 10.9478C30.7198 5.36738 26.196 0.843551 20.6155 0.843551H11.3651Z" fill="#474B64"/>
</g>
</g>
<defs>
<clipPath id="clip0_5548_15183">
<rect width="150" height="32" fill="white"/>
</clipPath>
<clipPath id="clip1_5548_15183">
<rect width="31.6307" height="31.6307" fill="white" transform="translate(-0.251877 0.184626)"/>
</clipPath>
</defs>
</svg>
