<svg width="108" height="108" viewBox="0 0 108 108" fill="none" xmlns="http://www.w3.org/2000/svg">
<path d="M2 52.55V69.4001C2 77.8251 16.0417 86.2501 38.5084 86.2501C60.9751 86.2501 75.0168 77.8251 75.0168 69.4001V52.55" fill="white"/>
<path d="M2 52.55V69.4001C2 77.8251 16.0417 86.2501 38.5084 86.2501C60.9751 86.2501 75.0168 77.8251 75.0168 69.4001V52.55H2Z" stroke="#0E1435" stroke-width="3" stroke-linecap="round" stroke-linejoin="round"/>
<path d="M38.5084 69.4005C58.6715 69.4005 75.0168 61.8565 75.0168 52.5505C75.0168 43.2445 58.6715 35.7004 38.5084 35.7004C18.3454 35.7004 2 43.2445 2 52.5505C2 61.8565 18.3454 69.4005 38.5084 69.4005Z" fill="white" stroke="#0E1435" stroke-width="3" stroke-linecap="round" stroke-linejoin="round"/>
<path d="M2 35.6996V52.5496C2 60.9746 16.0417 69.3997 38.5084 69.3997C60.9751 69.3997 75.0168 60.9746 75.0168 52.5496V35.6996" fill="white"/>
<path d="M2 35.6996V52.5496C2 60.9746 16.0417 69.3997 38.5084 69.3997C60.9751 69.3997 75.0168 60.9746 75.0168 52.5496V35.6996H2Z" stroke="#0E1435" stroke-width="3" stroke-linecap="round" stroke-linejoin="round"/>
<path d="M38.5084 52.5497C58.6715 52.5497 75.0168 45.0057 75.0168 35.6996C75.0168 26.3936 58.6715 18.8496 38.5084 18.8496C18.3454 18.8496 2 26.3936 2 35.6996C2 45.0057 18.3454 52.5497 38.5084 52.5497Z" fill="white" stroke="#0E1435" stroke-width="3" stroke-linecap="round" stroke-linejoin="round"/>
<path d="M2 18.8496V35.6996C2 44.1247 16.0417 52.5497 38.5084 52.5497C60.9751 52.5497 75.0168 44.1247 75.0168 35.6996V18.8496" fill="white"/>
<path d="M2 18.8496V35.6996C2 44.1247 16.0417 52.5497 38.5084 52.5497C60.9751 52.5497 75.0168 44.1247 75.0168 35.6996V18.8496H2Z" stroke="#0E1435" stroke-width="3" stroke-linecap="round" stroke-linejoin="round"/>
<path d="M38.5084 35.7001C58.6715 35.7001 75.0168 28.1561 75.0168 18.85C75.0168 9.54402 58.6715 2 38.5084 2C18.3454 2 2 9.54402 2 18.85C2 28.1561 18.3454 35.7001 38.5084 35.7001Z" fill="white" stroke="#0E1435" stroke-width="3" stroke-linecap="round" stroke-linejoin="round"/>
<path d="M33.2715 72.7843V89.6343C33.2715 98.0594 47.3132 106.484 69.7799 106.484C92.2466 106.484 106.288 98.0594 106.288 89.6343V72.7843" fill="white"/>
<path d="M33.2715 72.7843V89.6343C33.2715 98.0594 47.3132 106.484 69.7799 106.484C92.2466 106.484 106.288 98.0594 106.288 89.6343V72.7843H33.2715Z" stroke="#3354FF" stroke-width="3" stroke-linecap="round" stroke-linejoin="round"/>
<path d="M69.7799 89.6345C89.9429 89.6345 106.288 82.0905 106.288 72.7845C106.288 63.4785 89.9429 55.9344 69.7799 55.9344C49.6169 55.9344 33.2715 63.4785 33.2715 72.7845C33.2715 82.0905 49.6169 89.6345 69.7799 89.6345Z" fill="white" stroke="#3354FF" stroke-width="3" stroke-linecap="round" stroke-linejoin="round"/>
</svg>
