<svg width="66" height="66" viewBox="0 0 66 66" fill="none" xmlns="http://www.w3.org/2000/svg">
<path fill-rule="evenodd" clip-rule="evenodd" d="M2.15953 47.2874C2.15953 48.2722 3.15698 48.9435 4.06929 48.5726L24.6547 40.2046C25.1776 39.992 25.5196 39.4838 25.5196 38.9194L25.5196 29.1366C25.5196 28.5722 25.8616 28.064 26.3845 27.8514L46.4523 19.6938C46.9752 19.4812 47.3171 18.9731 47.3171 18.4086L47.3171 6.86543C47.3171 6.09924 46.696 5.47812 45.9298 5.47812L25.3444 5.47811C24.5782 5.47811 23.9571 6.09924 23.9571 6.86543L23.9571 24.6016C23.9571 25.3678 23.336 25.9889 22.5698 25.9889L3.54685 25.9889C2.78066 25.9889 2.15953 26.61 2.15953 27.3762L2.15953 47.2874Z" fill="white"/>
<path fill-rule="evenodd" clip-rule="evenodd" d="M63.8405 19.1418C63.8405 18.157 62.843 17.4857 61.9307 17.8566L41.3453 26.2246C40.8224 26.4372 40.4804 26.9454 40.4804 27.5098V37.2925C40.4804 37.857 40.1384 38.3651 39.6155 38.5777L19.5477 46.7353C19.0248 46.9479 18.6829 47.4561 18.6829 48.0205V59.5637C18.6829 60.3299 19.304 60.951 20.0702 60.951H40.6556C41.4218 60.951 42.0429 60.3299 42.0429 59.5637V41.8276C42.0429 41.0614 42.664 40.4403 43.4302 40.4403H62.4531C63.2193 40.4403 63.8405 39.8192 63.8405 39.053V19.1418Z" fill="white"/>
</svg>
