<svg width="66" height="66" viewBox="0 0 66 66" fill="none" xmlns="http://www.w3.org/2000/svg">
<path d="M22.7352 37.9667L9.61454 51.2219C7.82095 53.0339 4.8633 52.9941 3.08572 51.1665C1.34661 49.3783 1.34376 46.498 3.11086 44.7375L20.7899 27.1249C22.5649 25.3567 25.4346 25.3538 27.2131 27.1185L35.6742 35.514L49.5224 21.4848H40.1093C37.6599 21.4848 35.6742 19.4992 35.6742 17.0498C35.6742 14.6004 37.6599 12.6147 40.1093 12.6147H60.4447C62.9604 12.6147 64.9998 14.6541 64.9998 17.1698V37.3852C64.9998 39.9009 62.9604 41.9403 60.4447 41.9403H60.3227C57.807 41.9403 55.7676 39.9009 55.7676 37.3852V27.9111L39.4637 44.1416C37.3575 46.2384 33.9619 46.2681 31.8193 44.2085L25.2928 37.9349C24.5748 37.2448 23.4358 37.259 22.7352 37.9667Z" fill="white"/>
</svg>
