<svg width="66" height="66" viewBox="0 0 66 66" fill="none" xmlns="http://www.w3.org/2000/svg">
<path fill-rule="evenodd" clip-rule="evenodd" d="M23.9598 1C23.0615 1 22.3333 1.72819 22.3333 2.62644V22.3333H22.3333C10.5513 22.3333 1 31.8846 1 43.6667C1 55.4487 10.5513 65 22.3333 65H42.0402C42.9385 65 43.6667 64.2718 43.6667 63.3736L43.6667 43.6667C55.4488 43.6667 65 34.1154 65 22.3333C65 10.5513 55.4487 1 43.6667 1H23.9598ZM43.6667 43.6667H23.9598C23.0615 43.6667 22.3333 42.9385 22.3333 42.0402V22.3333H42.0402C42.9385 22.3333 43.6667 23.0615 43.6667 23.9598L43.6667 43.6667Z" fill="white"/>
<path d="M24.1363 1C23.1406 1 22.3335 1.80715 22.3335 2.80282L22.3335 22.3333H41.864C42.8597 22.3333 43.6668 23.1405 43.6668 24.1361L43.6668 43.6667C55.4489 43.6667 65.0002 34.1154 65.0002 22.3333C65.0002 10.5513 55.4489 1 43.6668 1H24.1363Z" fill="white"/>
</svg>
