<svg width="35" height="31" viewBox="0 0 35 31" fill="none" xmlns="http://www.w3.org/2000/svg">
<path d="M9.78809 13.5543L16.0653 1C17.3971 1 18.6744 1.52907 19.6162 2.47083C20.5579 3.41259 21.087 4.68989 21.087 6.02174V9.78804H31.1305C31.4866 9.78814 31.8387 9.86402 32.1633 10.0106C32.4879 10.1572 32.7776 10.3712 33.0132 10.6384C33.2487 10.9056 33.4247 11.2198 33.5295 11.5602C33.6343 11.9006 33.6655 12.2594 33.6209 12.6128L31.7378 27.678C31.6614 28.2846 31.3662 28.8425 30.9077 29.247C30.4491 29.6515 29.8588 29.8748 29.2473 29.875H9.78809" stroke="#3354FF" stroke-width="1.5" stroke-linecap="round" stroke-linejoin="round"/>
<path d="M2.25543 13.5544H9.78804V29.8751H2.25543C1.92247 29.8751 1.60315 29.7428 1.36771 29.5074C1.13227 29.2719 1 28.9526 1 28.6197V14.8099C1 14.4769 1.13227 14.1576 1.36771 13.9222C1.60315 13.6867 1.92247 13.5544 2.25543 13.5544Z" stroke="#0E1435" stroke-width="1.5" stroke-linecap="round" stroke-linejoin="round"/>
</svg>
