<svg width="38" height="35" viewBox="0 0 38 35" fill="none" xmlns="http://www.w3.org/2000/svg">
<g filter="url(#filter0_b_27_25310)">
<mask id="path-1-inside-1_27_25310" fill="white">
<path fill-rule="evenodd" clip-rule="evenodd" d="M18.5333 31.6255H19.2598L25.0633 34.875C27.3288 34.1078 29.429 32.9196 31.2536 31.373L31.2826 24.8339C31.4062 24.6305 31.5279 24.4234 31.6459 24.2145L37.4294 20.9268C37.8853 18.6205 37.8853 16.2472 37.4294 13.9409L31.6441 10.646C31.5315 10.4353 31.4098 10.23 31.2808 10.0266L31.259 3.4875C29.4316 1.94553 27.3295 0.762321 25.0633 0L19.2508 3.24955H18.5242L12.7117 0C10.445 0.766241 8.34354 1.9538 6.51775 3.50021L6.48869 10.0393C6.36518 10.2427 6.24348 10.4498 6.12541 10.6587L0.341973 13.9464C-0.113991 16.2527 -0.113991 18.626 0.341973 20.9323L6.13086 24.229C6.24348 24.4397 6.36518 24.645 6.49414 24.8484L6.51594 31.3875C8.34337 32.9295 10.4454 34.1127 12.7117 34.875L18.5333 31.6255ZM25.0632 17.4375C25.0632 20.8483 22.2982 23.6133 18.8875 23.6133C15.4767 23.6133 12.7117 20.8483 12.7117 17.4375C12.7117 14.0267 15.4767 11.2617 18.8875 11.2617C22.2982 11.2617 25.0632 14.0267 25.0632 17.4375Z"/>
</mask>
<path fill-rule="evenodd" clip-rule="evenodd" d="M18.5333 31.6255H19.2598L25.0633 34.875C27.3288 34.1078 29.429 32.9196 31.2536 31.373L31.2826 24.8339C31.4062 24.6305 31.5279 24.4234 31.6459 24.2145L37.4294 20.9268C37.8853 18.6205 37.8853 16.2472 37.4294 13.9409L31.6441 10.646C31.5315 10.4353 31.4098 10.23 31.2808 10.0266L31.259 3.4875C29.4316 1.94553 27.3295 0.762321 25.0633 0L19.2508 3.24955H18.5242L12.7117 0C10.445 0.766241 8.34354 1.9538 6.51775 3.50021L6.48869 10.0393C6.36518 10.2427 6.24348 10.4498 6.12541 10.6587L0.341973 13.9464C-0.113991 16.2527 -0.113991 18.626 0.341973 20.9323L6.13086 24.229C6.24348 24.4397 6.36518 24.645 6.49414 24.8484L6.51594 31.3875C8.34337 32.9295 10.4454 34.1127 12.7117 34.875L18.5333 31.6255ZM25.0632 17.4375C25.0632 20.8483 22.2982 23.6133 18.8875 23.6133C15.4767 23.6133 12.7117 20.8483 12.7117 17.4375C12.7117 14.0267 15.4767 11.2617 18.8875 11.2617C22.2982 11.2617 25.0632 14.0267 25.0632 17.4375Z" fill="#F7F8FF"/>
<path d="M19.2598 31.6255L19.9927 30.3167L19.6512 30.1255H19.2598V31.6255ZM18.5333 31.6255V30.1255H18.143L17.8022 30.3157L18.5333 31.6255ZM25.0633 34.875L24.3304 36.1838L24.9125 36.5097L25.5444 36.2957L25.0633 34.875ZM31.2536 31.373L32.2235 32.5172L32.7505 32.0705L32.7536 31.3796L31.2536 31.373ZM31.2826 24.8339L30.0005 24.0554L29.7845 24.4111L29.7827 24.8272L31.2826 24.8339ZM31.6459 24.2145L30.9046 22.9105L30.5441 23.1154L30.3401 23.4764L31.6459 24.2145ZM37.4294 20.9268L38.1707 22.2308L38.7677 21.8915L38.9009 21.2177L37.4294 20.9268ZM37.4294 13.9409L38.9009 13.65L38.7678 12.977L38.1717 12.6375L37.4294 13.9409ZM31.6441 10.646L30.3212 11.353L30.5254 11.735L30.9017 11.9494L31.6441 10.646ZM31.2808 10.0266L29.7808 10.0316L29.7823 10.4642L30.0139 10.8297L31.2808 10.0266ZM31.259 3.4875L32.759 3.4825L32.7567 2.78859L32.2264 2.34109L31.259 3.4875ZM25.0633 0L25.5415 -1.42172L24.9115 -1.63364L24.3313 -1.30928L25.0633 0ZM19.2508 3.24955V4.74955H19.6416L19.9827 4.55883L19.2508 3.24955ZM18.5242 3.24955L17.7922 4.55883L18.1334 4.74955H18.5242V3.24955ZM12.7117 0L13.4437 -1.30928L12.8623 -1.6343L12.2313 -1.421L12.7117 0ZM6.51775 3.50021L5.54829 2.3556L5.02084 2.80234L5.01777 3.49355L6.51775 3.50021ZM6.48869 10.0393L7.77087 10.8177L7.98683 10.4621L7.98868 10.0459L6.48869 10.0393ZM6.12541 10.6587L6.86671 11.9627L7.22721 11.7578L7.43126 11.3968L6.12541 10.6587ZM0.341973 13.9464L-0.399323 12.6423L-0.99635 12.9817L-1.12954 13.6554L0.341973 13.9464ZM0.341973 20.9323L-1.12954 21.2232L-0.996487 21.8962L-0.40034 22.2357L0.341973 20.9323ZM6.13086 24.229L7.45376 23.522L7.24957 23.14L6.87317 22.9256L6.13086 24.229ZM6.49414 24.8484L7.99413 24.8434L7.99269 24.4108L7.76103 24.0453L6.49414 24.8484ZM6.51594 31.3875L5.01595 31.3925L5.01826 32.0864L5.5486 32.5339L6.51594 31.3875ZM12.7117 34.875L12.2335 36.2967L12.8629 36.5085L13.4428 36.1848L12.7117 34.875ZM19.2598 30.1255H18.5333V33.1255H19.2598V30.1255ZM25.7961 33.5662L19.9927 30.3167L18.527 32.9342L24.3304 36.1838L25.7961 33.5662ZM30.2836 30.2288C28.6032 31.6533 26.6688 32.7476 24.5821 33.4543L25.5444 36.2957C27.9888 35.468 30.2549 34.186 32.2235 32.5172L30.2836 30.2288ZM29.7827 24.8272L29.7536 31.3663L32.7536 31.3796L32.7826 24.8406L29.7827 24.8272ZM30.3401 23.4764C30.2303 23.6707 30.1165 23.8643 30.0005 24.0554L32.5648 25.6124C32.6958 25.3967 32.8254 25.1761 32.9518 24.9526L30.3401 23.4764ZM36.6881 19.6228L30.9046 22.9105L32.3872 25.5185L38.1707 22.2308L36.6881 19.6228ZM35.9578 14.2318C36.3758 16.3461 36.3758 18.5217 35.9578 20.6359L38.9009 21.2177C39.3948 18.7193 39.3948 16.1484 38.9009 13.65L35.9578 14.2318ZM30.9017 11.9494L36.687 15.2443L38.1717 12.6375L32.3865 9.34254L30.9017 11.9494ZM30.0139 10.8297C30.1272 11.0084 30.2294 11.1812 30.3212 11.353L32.967 9.93889C32.8336 9.68928 32.6924 9.45163 32.5477 9.22344L30.0139 10.8297ZM29.759 3.4925L29.7808 10.0316L32.7808 10.0216L32.759 3.4825L29.759 3.4925ZM24.585 1.42172C26.6724 2.12386 28.6085 3.21367 30.2917 4.63391L32.2264 2.34109C30.2547 0.67739 27.9867 -0.599223 25.5415 -1.42172L24.585 1.42172ZM19.9827 4.55883L25.7952 1.30928L24.3313 -1.30928L18.5188 1.94027L19.9827 4.55883ZM18.5242 4.74955H19.2508V1.74955H18.5242V4.74955ZM11.9797 1.30928L17.7922 4.55883L19.2562 1.94027L13.4437 -1.30928L11.9797 1.30928ZM7.48722 4.64483C9.16883 3.22053 11.1044 2.12674 13.1921 1.421L12.2313 -1.421C9.78569 -0.594255 7.51824 0.687082 5.54829 2.3556L7.48722 4.64483ZM7.98868 10.0459L8.01774 3.50688L5.01777 3.49355L4.98871 10.0326L7.98868 10.0459ZM7.43126 11.3968C7.54105 11.2025 7.65481 11.0089 7.77087 10.8177L5.20651 9.26081C5.07555 9.47651 4.9459 9.69707 4.81957 9.92059L7.43126 11.3968ZM1.08327 15.2504L6.86671 11.9627L5.38412 9.35465L-0.399323 12.6423L1.08327 15.2504ZM1.81349 20.6413C1.3955 18.5271 1.3955 16.3515 1.81349 14.2373L-1.12954 13.6554C-1.62349 16.1538 -1.62349 18.7248 -1.12954 21.2232L1.81349 20.6413ZM6.87317 22.9256L1.08429 19.6288L-0.40034 22.2357L5.38855 25.5325L6.87317 22.9256ZM7.76103 24.0453C7.64775 23.8666 7.54558 23.6938 7.45376 23.522L4.80796 24.9361C4.94137 25.1857 5.0826 25.4234 5.22725 25.6516L7.76103 24.0453ZM8.01593 31.3825L7.99413 24.8434L4.99415 24.8534L5.01595 31.3925L8.01593 31.3825ZM13.1899 33.4533C11.1025 32.7511 9.16644 31.6613 7.48327 30.2411L5.5486 32.5339C7.5203 34.1976 9.78828 35.4742 12.2335 36.2967L13.1899 33.4533ZM17.8022 30.3157L11.9806 33.5652L13.4428 36.1848L19.2644 32.9352L17.8022 30.3157ZM18.8875 25.1133C23.1267 25.1133 26.5632 21.6767 26.5632 17.4375H23.5632C23.5632 20.0199 21.4698 22.1133 18.8875 22.1133V25.1133ZM11.2117 17.4375C11.2117 21.6767 14.6482 25.1133 18.8875 25.1133V22.1133C16.3051 22.1133 14.2117 20.0199 14.2117 17.4375H11.2117ZM18.8875 9.76172C14.6482 9.76172 11.2117 13.1983 11.2117 17.4375H14.2117C14.2117 14.8551 16.3051 12.7617 18.8875 12.7617V9.76172ZM26.5632 17.4375C26.5632 13.1983 23.1267 9.76172 18.8875 9.76172V12.7617C21.4698 12.7617 23.5632 14.8551 23.5632 17.4375H26.5632Z" fill="#0E1435" mask="url(#path-1-inside-1_27_25310)"/>
</g>
<path d="M18.8877 24.3633C22.7127 24.3633 25.8135 21.2625 25.8135 17.4375C25.8135 13.6125 22.7127 10.5117 18.8877 10.5117C15.0627 10.5117 11.9619 13.6125 11.9619 17.4375C11.9619 21.2625 15.0627 24.3633 18.8877 24.3633Z" fill="#F7F8FF" stroke="#3354FF" stroke-width="1.5" stroke-linecap="round" stroke-linejoin="round"/>
<defs>
<filter id="filter0_b_27_25310" x="-12" y="-12" width="61.7715" height="58.875" filterUnits="userSpaceOnUse" color-interpolation-filters="sRGB">
<feFlood flood-opacity="0" result="BackgroundImageFix"/>
<feGaussianBlur in="BackgroundImageFix" stdDeviation="6"/>
<feComposite in2="SourceAlpha" operator="in" result="effect1_backgroundBlur_27_25310"/>
<feBlend mode="normal" in="SourceGraphic" in2="effect1_backgroundBlur_27_25310" result="shape"/>
</filter>
</defs>
</svg>
