<svg width="27" height="36" viewBox="0 0 27 36" fill="none" xmlns="http://www.w3.org/2000/svg">
<path d="M7.09277 26.8462L18.863 26.8462" stroke="#0E1435" stroke-width="1.5" stroke-linecap="round"/>
<path d="M12.9785 18.1921L12.9785 26.8461" stroke="#3354FF" stroke-width="1.5" stroke-linecap="round"/>
<g filter="url(#filter0_b_27_25287)">
<mask id="path-3-inside-1_27_25287" fill="white">
<path fill-rule="evenodd" clip-rule="evenodd" d="M19.3973 27.8226C19.3973 25.6608 20.6434 23.7408 22.1754 22.2154C24.54 19.861 26.0035 16.6023 26.0035 13.0018C26.0035 5.82109 20.1825 0 13.0018 0C5.82109 0 0 5.82109 0 13.0018C0 16.602 1.46331 19.8605 3.82762 22.2149C5.35936 23.7402 6.60524 25.6601 6.60524 27.8217V29.1741C6.60524 32.7066 9.46884 35.5702 13.0013 35.5702C16.5337 35.5702 19.3973 32.7066 19.3973 29.1741V27.8226Z"/>
</mask>
<path d="M3.82762 22.2149L2.7692 23.2778L3.82762 22.2149ZM24.5035 13.0018C24.5035 16.1873 23.2105 19.068 21.117 21.1525L23.2337 23.2784C25.8695 20.654 27.5035 17.0173 27.5035 13.0018H24.5035ZM13.0018 1.5C19.354 1.5 24.5035 6.64952 24.5035 13.0018H27.5035C27.5035 4.99266 21.0109 -1.5 13.0018 -1.5V1.5ZM1.5 13.0018C1.5 6.64952 6.64952 1.5 13.0018 1.5V-1.5C4.99266 -1.5 -1.5 4.99266 -1.5 13.0018H1.5ZM4.88605 21.152C2.79283 19.0676 1.5 16.1871 1.5 13.0018H-1.5C-1.5 17.017 0.13379 20.6534 2.7692 23.2778L4.88605 21.152ZM8.10524 29.1741V27.8217H5.10524V29.1741H8.10524ZM13.0013 34.0702C10.2973 34.0702 8.10524 31.8781 8.10524 29.1741H5.10524C5.10524 33.535 8.64042 37.0702 13.0013 37.0702V34.0702ZM17.8973 29.1741C17.8973 31.8781 15.7053 34.0702 13.0013 34.0702V37.0702C17.3621 37.0702 20.8973 33.535 20.8973 29.1741H17.8973ZM17.8973 27.8226V29.1741H20.8973V27.8226H17.8973ZM2.7692 23.2778C4.18455 24.6872 5.10524 26.2445 5.10524 27.8217H8.10524C8.10524 25.0756 6.53416 22.7932 4.88605 21.152L2.7692 23.2778ZM21.117 21.1525C19.4686 22.7937 17.8973 25.0763 17.8973 27.8226H20.8973C20.8973 26.2453 21.8182 24.6878 23.2337 23.2784L21.117 21.1525Z" fill="#0E1435" mask="url(#path-3-inside-1_27_25287)"/>
</g>
<path d="M10.1338 15.3484L12.9775 18.1921L15.8213 15.3484" stroke="#3354FF" stroke-width="1.5" stroke-linecap="round" stroke-linejoin="round"/>
<defs>
<filter id="filter0_b_27_25287" x="-12" y="-12" width="50.0039" height="59.5701" filterUnits="userSpaceOnUse" color-interpolation-filters="sRGB">
<feFlood flood-opacity="0" result="BackgroundImageFix"/>
<feGaussianBlur in="BackgroundImageFix" stdDeviation="6"/>
<feComposite in2="SourceAlpha" operator="in" result="effect1_backgroundBlur_27_25287"/>
<feBlend mode="normal" in="SourceGraphic" in2="effect1_backgroundBlur_27_25287" result="shape"/>
</filter>
</defs>
</svg>
