<svg width="46" height="46" viewBox="0 0 46 46" fill="none" xmlns="http://www.w3.org/2000/svg">
<circle cx="29.7358" cy="29.2514" r="15.3755" stroke="#0E1435" stroke-width="1.5"/>
<g filter="url(#filter0_b_27_25318)">
<path d="M18.6984 1.48359C19.0841 0.82132 20.0409 0.821321 20.4266 1.48359L25.6649 10.4772C25.8062 10.7198 26.043 10.8918 26.3174 10.9512L36.4895 13.154C37.2386 13.3162 37.5342 14.2261 37.0236 14.7976L30.0889 22.5587C29.9018 22.7681 29.8114 23.0464 29.8397 23.3258L30.8881 33.6807C30.9653 34.4432 30.1913 35.0056 29.4899 34.6966L19.9657 30.4996C19.7088 30.3864 19.4162 30.3864 19.1593 30.4996L9.63506 34.6966C8.93372 35.0056 8.1597 34.4432 8.2369 33.6807L9.28534 23.3258C9.31362 23.0464 9.22318 22.7681 9.03611 22.5587L2.10141 14.7976C1.59075 14.2261 1.88641 13.3162 2.63546 13.154L12.8076 10.9512C13.082 10.8918 13.3188 10.7198 13.4601 10.4772L18.6984 1.48359Z" fill="#F7F8FF"/>
<path d="M19.7785 1.86106L25.0168 10.8547C25.2641 11.2792 25.6785 11.5803 26.1587 11.6843L36.3308 13.887C36.5181 13.9276 36.592 14.155 36.4643 14.2979L29.5296 22.059C29.2025 22.4254 29.044 22.9125 29.0935 23.4013L30.1419 33.7563C30.1612 33.9469 29.9677 34.0875 29.7924 34.0102L20.2682 29.8133C19.8186 29.6151 19.3064 29.6151 18.8568 29.8133L9.33263 34.0102C9.15729 34.0875 8.96378 33.9469 8.98309 33.7563L10.0315 23.4013C10.081 22.9125 9.92274 22.4254 9.59538 22.059L2.66068 14.2979C2.53301 14.155 2.60692 13.9276 2.79419 13.887L12.9663 11.6843C13.4465 11.5803 13.8609 11.2792 14.1082 10.8547L19.3465 1.86106C19.4429 1.6955 19.6821 1.6955 19.7785 1.86106Z" stroke="#3354FF" stroke-width="1.5"/>
</g>
<defs>
<filter id="filter0_b_27_25318" x="-10.1533" y="-11.0132" width="59.4316" height="57.7961" filterUnits="userSpaceOnUse" color-interpolation-filters="sRGB">
<feFlood flood-opacity="0" result="BackgroundImageFix"/>
<feGaussianBlur in="BackgroundImageFix" stdDeviation="6"/>
<feComposite in2="SourceAlpha" operator="in" result="effect1_backgroundBlur_27_25318"/>
<feBlend mode="normal" in="SourceGraphic" in2="effect1_backgroundBlur_27_25318" result="shape"/>
</filter>
</defs>
</svg>
