<svg width="39" height="39" viewBox="0 0 39 39" fill="none" xmlns="http://www.w3.org/2000/svg">
<path d="M11.5908 19.3868C11.5908 26.5606 14.1436 32.9684 18.1556 37.2907C18.295 37.4423 18.4643 37.5633 18.6529 37.6461C18.8415 37.7288 19.0451 37.7716 19.2511 37.7716C19.457 37.7716 19.6607 37.7288 19.8492 37.6461C20.0378 37.5633 20.2071 37.4423 20.3465 37.2907C24.3585 32.9684 26.9113 26.5606 26.9113 19.3868C26.9113 12.213 24.3585 5.80516 20.3465 1.48287C20.2071 1.33128 20.0378 1.21026 19.8492 1.12748C19.6607 1.0447 19.457 1.00195 19.2511 1.00195C19.0451 1.00195 18.8415 1.0447 18.6529 1.12748C18.4643 1.21026 18.295 1.33128 18.1556 1.48287C14.1436 5.80516 11.5908 12.213 11.5908 19.3868Z" stroke="url(#paint0_linear_27_25296)" stroke-width="1.5" stroke-linecap="round"/>
<path d="M1.91211 13.2588H36.59" stroke="url(#paint1_linear_27_25296)" stroke-width="1.5" stroke-linecap="round"/>
<path d="M1.91211 25.5151H36.59" stroke="url(#paint2_linear_27_25296)" stroke-width="1.5" stroke-linecap="round"/>
<path d="M11.5908 19.3868C11.5908 26.5606 14.1436 32.9684 18.1556 37.2907C18.295 37.4423 18.4643 37.5633 18.6529 37.6461C18.8415 37.7288 19.0451 37.7716 19.2511 37.7716C19.457 37.7716 19.6607 37.7288 19.8492 37.6461C20.0378 37.5633 20.2071 37.4423 20.3465 37.2907C24.3585 32.9684 26.9113 26.5606 26.9113 19.3868C26.9113 12.213 24.3585 5.80516 20.3465 1.48287C20.2071 1.33128 20.0378 1.21026 19.8492 1.12748C19.6607 1.0447 19.457 1.00195 19.2511 1.00195C19.0451 1.00195 18.8415 1.0447 18.6529 1.12748C18.4643 1.21026 18.295 1.33128 18.1556 1.48287C14.1436 5.80516 11.5908 12.213 11.5908 19.3868Z" stroke="#3354FF" stroke-width="1.5" stroke-linecap="round"/>
<path d="M1.91211 13.2588H36.59" stroke="#3354FF" stroke-width="1.5" stroke-linecap="round"/>
<path d="M1.91211 25.5151H36.59" stroke="#3354FF" stroke-width="1.5" stroke-linecap="round"/>
<g filter="url(#filter0_b_27_25296)">
<circle cx="19.251" cy="19.251" r="18.501" stroke="#0E1435" stroke-width="1.5"/>
</g>
<defs>
<filter id="filter0_b_27_25296" x="-12" y="-12" width="62.502" height="62.502" filterUnits="userSpaceOnUse" color-interpolation-filters="sRGB">
<feFlood flood-opacity="0" result="BackgroundImageFix"/>
<feGaussianBlur in="BackgroundImageFix" stdDeviation="6"/>
<feComposite in2="SourceAlpha" operator="in" result="effect1_backgroundBlur_27_25296"/>
<feBlend mode="normal" in="SourceGraphic" in2="effect1_backgroundBlur_27_25296" result="shape"/>
</filter>
<linearGradient id="paint0_linear_27_25296" x1="26.9113" y1="36.752" x2="26.9113" y2="2.12695" gradientUnits="userSpaceOnUse">
<stop stop-color="white" stop-opacity="0"/>
<stop offset="0.546875" stop-color="white"/>
<stop offset="1" stop-color="white" stop-opacity="0"/>
</linearGradient>
<linearGradient id="paint1_linear_27_25296" x1="0.767624" y1="13.2588" x2="36.59" y2="13.2588" gradientUnits="userSpaceOnUse">
<stop stop-color="white" stop-opacity="0"/>
<stop offset="0.546875" stop-color="white"/>
<stop offset="1" stop-color="white" stop-opacity="0"/>
</linearGradient>
<linearGradient id="paint2_linear_27_25296" x1="0.767624" y1="25.5151" x2="36.59" y2="25.5151" gradientUnits="userSpaceOnUse">
<stop stop-color="white" stop-opacity="0"/>
<stop offset="0.546875" stop-color="white"/>
<stop offset="1" stop-color="white" stop-opacity="0"/>
</linearGradient>
</defs>
</svg>
