<svg width="66" height="66" viewBox="0 0 66 66" fill="none" xmlns="http://www.w3.org/2000/svg">
<path fill-rule="evenodd" clip-rule="evenodd" d="M32.792 24.5134L41.4867 33.208L33.208 41.4866L24.5134 32.792L32.792 24.5134ZM23.8776 15.5989L18.4263 10.1477C18.1154 9.83673 18.1154 9.33259 18.4263 9.02165L26.2148 1.23321C26.5257 0.922264 27.0299 0.922264 27.3408 1.23321L53.9669 27.8593C56.9209 30.8133 56.9209 35.6027 53.9669 38.5567L42.1225 50.4011L47.5737 55.8523C47.8846 56.1633 47.8846 56.6674 47.5737 56.9784L39.7853 64.7668C39.4743 65.0777 38.9702 65.0777 38.6592 64.7668L12.0331 38.1407C9.07913 35.1867 9.07913 30.3973 12.0331 27.4433L23.8776 15.5989Z" fill="white"/>
</svg>
