<svg width="66" height="66" viewBox="0 0 66 66" fill="none" xmlns="http://www.w3.org/2000/svg">
<path d="M30.6944 7.3132C30.6944 5.09141 28.8852 3.2623 26.6837 3.56224C24.161 3.90593 21.6874 4.57324 19.3249 5.55181C15.7204 7.04486 12.4452 9.23327 9.68641 11.9921C6.9276 14.7509 4.73919 18.0261 3.24614 21.6306C1.75308 25.2352 0.984618 29.0985 0.984617 33C0.984617 36.9016 1.75308 40.7649 3.24614 44.3695C4.73919 47.974 6.9276 51.2492 9.68641 54.008C12.4452 56.7668 15.7204 58.9552 19.3249 60.4483C22.9295 61.9413 26.7928 62.7098 30.6944 62.7098L30.6944 48.4491C28.6656 48.4491 26.6566 48.0495 24.7823 47.2731C22.9079 46.4967 21.2048 45.3588 19.7702 43.9242C18.3357 42.4896 17.1977 40.7865 16.4213 38.9122C15.6449 37.0378 15.2453 35.0288 15.2453 33C15.2453 30.9712 15.6449 28.9623 16.4213 27.0879C17.1977 25.2136 18.3357 23.5105 19.7702 22.0759C21.2048 20.6413 22.9079 19.5033 24.7823 18.727C25.4133 18.4656 26.0596 18.2469 26.7168 18.0718C28.8636 17.4998 30.6944 15.7498 30.6944 13.5281L30.6944 7.3132Z" fill="white"/>
<path d="M55.9812 33C58.203 33 60.0321 34.8092 59.7322 37.0107C59.3885 39.5333 58.7212 42.007 57.7426 44.3694C56.2496 47.974 54.0612 51.2492 51.3024 54.008C48.5436 56.7668 45.2684 58.9552 41.6638 60.4482C38.0593 61.9413 34.1959 62.7098 30.2944 62.7098L30.2944 48.4491C32.3232 48.4491 34.3321 48.0495 36.2065 47.2731C38.0809 46.4967 39.784 45.3587 41.2185 43.9241C42.6531 42.4896 43.7911 40.7865 44.5675 38.9121C44.8289 38.2811 45.0475 37.6348 45.2226 36.9776C45.7947 34.8307 47.5446 33 49.7664 33L55.9812 33Z" fill="white"/>
<path d="M60.9922 3.30432C63.214 3.30432 65.0431 5.11352 64.7432 7.31498C64.3995 9.83767 63.7322 12.3113 62.7536 14.6738C61.2606 18.2783 59.0722 21.5535 56.3134 24.3123C53.5545 27.0711 50.2794 29.2595 46.6748 30.7526C44.3124 31.7311 41.8387 32.3984 39.316 32.7421C37.1146 33.0421 35.3054 31.213 35.3054 28.9912L35.3054 22.7763C35.3054 20.5545 37.1361 18.8046 39.283 18.2326C39.9402 18.0575 40.5864 17.8388 41.2175 17.5774C43.0919 16.801 44.7949 15.663 46.2295 14.2285C47.6641 12.7939 48.8021 11.0908 49.5785 9.21643C49.8398 8.5854 50.0585 7.93911 50.2336 7.28195C50.8057 5.13506 52.5556 3.30432 54.7774 3.30432L60.9922 3.30432Z" fill="white"/>
</svg>
